<svg xmlns="http://www.w3.org/2000/svg" width="60" height="60" viewBox="0 0 60 60" fill="none">
<rect width="60" height="60" rx="15" fill="#FFEEE2"/>
<path d="M25.8876 17.6847C26.3969 17.1241 27.1289 16.7944 27.8928 16.7944C30.1525 16.7944 32.4122 16.7944 34.7038 16.7944C35.0539 16.7944 35.3722 16.7614 35.7223 16.8274C36.5498 16.9593 37.2818 17.4869 37.6956 18.2453C37.9502 18.674 38.0775 19.2016 38.0775 19.7292C38.0775 20.4217 38.0775 21.1472 38.0775 21.8397C38.6185 21.8397 39.1596 21.8397 39.7007 21.8397C40.4645 21.8397 41.1966 22.2024 41.7058 22.763C42.1832 23.2906 42.4378 23.9831 42.4696 24.7085C42.9789 29.457 43.4881 34.2055 43.9973 38.9541C44.0292 39.8774 43.6154 40.7677 42.9152 41.3283C42.4378 41.724 41.8013 41.9219 41.1965 41.9219C37.3136 41.9219 33.4307 41.9219 29.5478 41.9219C30.1843 40.5699 30.4071 39.053 30.2798 37.602C30.1207 35.8543 29.3886 34.2055 28.2747 32.9195C27.6381 32.227 26.9061 31.6005 26.1104 31.1718C25.2193 30.6771 24.2008 30.3804 23.1823 30.2814C22.1002 30.1825 21.0181 30.3144 19.9678 30.6442C20.1269 29.2262 20.286 27.8083 20.4134 26.4233C20.477 25.7638 20.5725 25.1043 20.6043 24.4447C20.6998 23.7193 21.0499 23.0598 21.5591 22.5981C22.0684 22.1694 22.7049 21.9056 23.3415 21.9056C23.9462 21.9056 24.5509 21.9056 25.1556 21.9056C25.1556 21.1801 25.1556 20.4877 25.1556 19.7622C25.1238 18.9048 25.4102 18.2123 25.8876 17.6847ZM27.479 18.4432C27.0016 18.608 26.6515 19.1357 26.6515 19.6633C26.6515 20.3887 26.6515 21.0812 26.6515 21.8067C29.9615 21.8067 33.2397 21.8067 36.5498 21.8067C36.5498 21.1472 36.5498 20.5206 36.5498 19.8611C36.5498 19.6962 36.5498 19.5314 36.5179 19.3995C36.4225 18.9378 36.0724 18.5421 35.6268 18.4102C35.3722 18.3442 35.1175 18.3772 34.8629 18.3442C32.5714 18.3442 30.3116 18.3442 28.0201 18.3442C27.8291 18.3442 27.67 18.3772 27.479 18.4432Z" fill="#EA7B2C"/>
<path d="M22.1643 31.7332C23.2782 31.7002 24.424 31.964 25.4106 32.5246C26.811 33.3161 27.8932 34.6681 28.4024 36.2509C28.9435 37.8667 28.8161 39.7133 28.0841 41.2632C27.6385 42.1535 27.0338 42.9779 26.2381 43.5715C25.5061 44.1651 24.6468 44.5937 23.7238 44.7916C22.387 45.0884 20.9548 44.9235 19.7136 44.3299C18.4086 43.7034 17.2947 42.6152 16.6581 41.2632C16.1489 40.2409 15.9261 39.0538 16.0216 37.8997C16.0852 36.9104 16.3399 35.9541 16.8173 35.0967C17.2629 34.2723 17.8676 33.5799 18.5678 33.0193C19.5862 32.2608 20.8912 31.7992 22.1643 31.7332ZM21.5914 35.1297C21.5914 36.119 21.5914 37.0753 21.5914 38.0646C20.732 38.0646 19.8727 38.0646 19.0452 38.0646C18.7906 38.0646 18.5678 38.2954 18.5359 38.5592C18.5041 38.79 18.6633 39.0208 18.886 39.0868C18.9815 39.1198 19.077 39.1198 19.2043 39.1198C20 39.1198 20.8275 39.1198 21.6232 39.1198C21.6232 40.0101 21.6232 40.8675 21.6232 41.7578C21.6232 41.9227 21.7187 42.1206 21.846 42.2195C22.0051 42.3184 22.2279 42.3184 22.387 42.2195C22.5462 42.1206 22.6098 41.9557 22.6098 41.7578C22.6098 40.8675 22.6098 40.0101 22.6098 39.1198C23.501 39.1198 24.3922 39.1198 25.2833 39.1198C25.3788 39.1198 25.4743 39.1198 25.5698 39.0868C25.7289 39.0538 25.8562 38.9219 25.9199 38.757C25.9835 38.5922 25.9517 38.3943 25.8244 38.2624C25.7289 38.1305 25.5698 38.0646 25.4106 38.0646C24.4876 38.0646 23.5647 38.0646 22.6098 38.0646C22.6098 37.1412 22.6098 36.1849 22.6098 35.2616C22.6098 35.1627 22.6098 35.0308 22.5462 34.9319C22.4507 34.734 22.2279 34.6021 22.0051 34.6351C21.7823 34.6351 21.5914 34.8659 21.5914 35.1297Z" fill="#EA7B2C"/>
</svg>