<svg width="190" height="36" viewBox="0 0 190 36" fill="none" xmlns="http://www.w3.org/2000/svg">
<g id="Asset 4 1" clip-path="url(#clip0_242_3827)">
<g id="Layer 2">
<g id="Layer 2_2">
<path id="Vector" d="M58.9773 18.5274C58.4311 18.1507 57.839 17.8455 57.2154 17.6192C56.6069 17.3922 56.0711 17.2105 55.6079 17.0834L51.5666 15.9209C51.0194 15.7638 50.4825 15.5727 49.9591 15.3488C49.4412 15.1446 48.9712 14.8354 48.5787 14.4406C48.1894 14.009 47.987 13.4409 48.0156 12.8604C48.0094 12.2257 48.2318 11.61 48.6422 11.1258C49.0857 10.5918 49.6576 10.1793 50.3042 9.92698C51.0516 9.62887 51.852 9.48671 52.6564 9.50922C53.5156 9.50874 54.3656 9.68494 55.1539 10.0269C55.8934 10.3571 56.544 10.8582 57.0519 11.489C57.5534 12.1065 57.8908 12.8406 58.0328 13.6232L60.8209 13.1328C60.6009 11.9217 60.0863 10.7833 59.3224 9.818C58.5764 8.88698 57.6126 8.154 56.5161 7.68379C55.305 7.16742 54.0001 6.90766 52.6836 6.92092C51.3846 6.90242 50.0946 7.14005 48.8875 7.62022C47.8303 8.04521 46.9099 8.75197 46.2265 9.66361C45.5563 10.6028 45.209 11.7341 45.2366 12.8876C45.2231 13.5915 45.356 14.2904 45.6271 14.9401C45.8669 15.4994 46.2194 16.0033 46.6624 16.4204C47.0972 16.8361 47.5934 17.1823 48.1337 17.4467C48.6858 17.7139 49.2601 17.9327 49.8501 18.1005L55.2992 19.708C55.6775 19.8258 56.0476 19.9684 56.4071 20.1349C56.7333 20.3004 57.0382 20.5047 57.3153 20.7433C57.5989 20.995 57.825 21.3047 57.9783 21.6515C58.1496 22.0245 58.2364 22.4308 58.2326 22.8412C58.2447 23.5677 58.0003 24.2751 57.5423 24.8392C57.0597 25.42 56.4335 25.8646 55.726 26.1288C54.899 26.4398 54.0212 26.5938 53.1377 26.5829C51.7623 26.6105 50.4127 26.2072 49.278 25.4295C48.1989 24.6878 47.4349 23.5708 47.1347 22.2963L44.4102 22.7231C44.6207 23.9631 45.1496 25.1272 45.945 26.1016C46.744 27.0637 47.7668 27.8153 48.9238 28.2902C50.2144 28.8182 51.5981 29.0808 52.9924 29.0622C54.042 29.0671 55.0873 28.9265 56.0984 28.6444C57.0136 28.3942 57.8754 27.9787 58.6412 27.4184C59.3549 26.8972 59.9365 26.216 60.3395 25.4295C60.7601 24.5837 60.9718 23.6494 60.9571 22.705C60.9884 21.8233 60.7946 20.9482 60.394 20.1621C60.0535 19.5157 59.5687 18.9563 58.9773 18.5274Z" fill="#3F4F73"/>
<path id="Vector_2" d="M77.3043 15.8567C77.0304 15.1918 76.6466 14.5778 76.169 14.0403C75.6643 13.4815 75.0447 13.0385 74.3527 12.7416C73.5128 12.3944 72.6094 12.2273 71.7008 12.2512C70.454 12.2281 69.2241 12.5418 68.1408 13.1594C67.4585 13.5707 66.8681 14.1178 66.4062 14.7668V7.36523H64.0449V28.6347H66.6968V20.225C66.6837 19.4115 66.7908 18.6005 67.0146 17.8183C67.1992 17.1965 67.5082 16.6187 67.9228 16.12C68.2952 15.6757 68.7685 15.3269 69.3032 15.1029C69.8793 14.8676 70.4975 14.7532 71.1196 14.7668C71.852 14.7397 72.5786 14.9057 73.2266 15.2482C73.7781 15.569 74.2354 16.0295 74.5525 16.5832C74.887 17.1696 75.1203 17.8082 75.2427 18.4722C75.3818 19.1873 75.4518 19.9142 75.4516 20.6427V28.6347H78.1125V19.8163C78.1052 19.168 78.0475 18.5212 77.94 17.8819C77.8085 17.1841 77.5951 16.5044 77.3043 15.8567Z" fill="#3F4F73"/>
<path id="Vector_3" d="M92.8247 13.3147C91.5747 12.6196 90.1681 12.2549 88.7379 12.2549C87.3077 12.2549 85.9011 12.6196 84.6511 13.3147C83.497 14.0227 82.5703 15.0471 81.9811 16.2662C81.3427 17.6415 81.0318 19.1461 81.0729 20.6618C81.0363 22.1712 81.347 23.6689 81.9811 25.0392C82.5509 26.2481 83.4474 27.2736 84.5694 27.9998C85.8197 28.7429 87.257 29.1117 88.7107 29.0624C90.1523 29.0966 91.5746 28.7252 92.8156 27.9908C93.963 27.28 94.8832 26.2559 95.4675 25.0392C96.1068 23.6642 96.4178 22.1594 96.3757 20.6436C96.4115 19.1401 96.1007 17.6485 95.4675 16.2844C94.8864 15.0637 93.9697 14.0336 92.8247 13.3147ZM92.3888 24.9302C91.9638 25.4809 91.4106 25.9193 90.7775 26.2074C90.1444 26.4954 89.4504 26.6244 88.7561 26.5831C88.0645 26.6237 87.3734 26.4972 86.7411 26.2142C86.1088 25.9313 85.5539 25.5002 85.1234 24.9575C84.2414 23.6974 83.8037 22.1798 83.8792 20.6436C83.8593 19.5955 84.0412 18.5534 84.415 17.574C84.7302 16.7353 85.2903 16.0107 86.0225 15.4943C86.8302 14.9658 87.7825 14.7023 88.747 14.7405C89.4368 14.6993 90.1265 14.8237 90.7585 15.1033C91.3904 15.3829 91.9463 15.8097 92.3797 16.348C93.2687 17.599 93.716 19.1103 93.6511 20.6436C93.7078 22.1718 93.2646 23.6767 92.3888 24.9302Z" fill="#3F4F73"/>
<path id="Vector_4" d="M113.241 24.349L109.663 12.679H107.347L103.76 24.349L100.2 12.679L97.584 12.6699L102.461 28.6356H104.64L108.5 16.5115L112.351 28.6356H114.54L119.416 12.679H116.81L113.241 24.349Z" fill="#3F4F73"/>
<path id="Vector_5" d="M126.854 10.5081C128.034 9.75734 129.415 9.38357 130.813 9.43647C132.386 9.36271 133.934 9.84858 135.182 10.8078C136.329 11.7731 137.143 13.0763 137.507 14.5313L140.177 13.8229C139.657 11.8279 138.503 10.0558 136.889 8.7735C135.139 7.46874 132.994 6.80502 130.813 6.89358C128.921 6.8449 127.054 7.34311 125.437 8.3285C123.953 9.26781 122.778 10.6227 122.059 12.2246C121.254 14.042 120.858 16.0135 120.896 18.0005C120.858 19.9876 121.254 21.9591 122.059 23.7765C122.778 25.3784 123.953 26.7333 125.437 27.6726C127.059 28.6421 128.925 29.1244 130.813 29.0621C132.939 29.1879 135.041 28.5629 136.752 27.2963C138.464 26.0297 139.676 24.2021 140.177 22.1327L137.507 21.4244C137.144 22.8848 136.33 24.1939 135.182 25.166C133.937 26.1321 132.387 26.6216 130.813 26.5465C129.412 26.5951 128.028 26.2183 126.845 25.4657C125.767 24.7181 124.933 23.6694 124.447 22.4506C123.895 21.0272 123.629 19.5087 123.666 17.9824C123.646 16.4519 123.92 14.9319 124.474 13.5051C124.957 12.2945 125.784 11.2523 126.854 10.5081Z" fill="#3F4F73"/>
<path id="Vector_6" d="M155.689 15.3574C155.252 14.3317 154.458 13.4992 153.455 13.0144C152.287 12.4716 151.009 12.2074 149.722 12.2424C148.179 12.1655 146.653 12.5823 145.363 13.4321C144.259 14.2391 143.469 15.4043 143.129 16.7288L145.626 17.4826C145.855 16.6079 146.403 15.8501 147.161 15.3574C147.926 14.9011 148.804 14.6712 149.695 14.6945C150.25 14.6337 150.812 14.694 151.342 14.8712C151.872 15.0483 152.357 15.3381 152.764 15.7207C153.346 16.507 153.64 17.4683 153.6 18.4452L151.847 18.6814C150.885 18.8085 149.931 18.9447 148.996 19.0991C148.06 19.2535 147.179 19.4351 146.453 19.6349C145.709 19.8485 145.003 20.1796 144.364 20.6158C143.796 21.0087 143.334 21.536 143.02 22.1506C142.686 22.8244 142.521 23.5693 142.538 24.3211C142.533 25.1489 142.746 25.9635 143.156 26.6824C143.586 27.4198 144.216 28.021 144.972 28.417C145.897 28.8848 146.924 29.1128 147.96 29.0799C149.336 29.1214 150.697 28.782 151.893 28.0991C152.691 27.6052 153.368 26.9378 153.872 26.1465V28.6349H156.206V18.7722C156.209 18.1655 156.179 17.5592 156.116 16.9558C156.065 16.4027 155.921 15.8622 155.689 15.3574ZM153.328 23.195C153.196 23.856 152.913 24.4776 152.501 25.0113C152.068 25.5752 151.508 26.0294 150.866 26.3373C150.097 26.6962 149.254 26.8704 148.405 26.8458C147.78 26.8704 147.157 26.7459 146.589 26.4826C146.156 26.2712 145.796 25.9362 145.554 25.5199C145.336 25.1411 145.22 24.7125 145.218 24.2757C145.203 23.8342 145.327 23.3991 145.572 23.0315C145.81 22.6877 146.12 22.3996 146.48 22.1869C146.868 21.9645 147.279 21.7848 147.706 21.6511C148.357 21.4721 149.018 21.3296 149.686 21.2242C150.421 21.1062 151.202 20.9881 152.038 20.8791L153.645 20.6612C153.645 20.9064 153.645 21.197 153.645 21.5693C153.601 22.1214 153.494 22.6668 153.328 23.195Z" fill="#3F4F73"/>
<path id="Vector_7" d="M170.201 20.5438C169.135 20.0393 168.017 19.6526 166.868 19.3904C165.9 19.1581 164.945 18.8762 164.007 18.5458C163.507 18.3928 163.047 18.129 162.663 17.7738C162.422 17.4973 162.293 17.1413 162.3 16.7749C162.296 16.4407 162.385 16.1122 162.557 15.8254C162.728 15.5385 162.976 15.3046 163.271 15.1492C164.037 14.719 164.911 14.5232 165.787 14.5862C166.738 14.5811 167.67 14.8559 168.466 15.3763C168.801 15.6074 169.084 15.9062 169.297 16.2535C169.51 16.6008 169.648 16.9887 169.701 17.3924L172.426 16.9111C172.331 16.0064 171.971 15.15 171.39 14.4499C170.768 13.7188 169.972 13.1565 169.075 12.8152C168.037 12.4183 166.934 12.2241 165.823 12.2431C164.727 12.2197 163.636 12.4174 162.617 12.8243C161.763 13.1598 161.018 13.7257 160.465 14.459C159.95 15.1715 159.679 16.0318 159.693 16.9111C159.671 17.5957 159.851 18.2716 160.211 18.8546C160.653 19.468 161.252 19.951 161.945 20.2532C163.014 20.7457 164.127 21.1349 165.269 21.4156C166.571 21.7728 167.543 22.0756 168.185 22.3238C168.673 22.4655 169.113 22.7388 169.456 23.1139C169.671 23.4324 169.779 23.8108 169.765 24.1946C169.774 24.5486 169.696 24.8994 169.537 25.2161C169.379 25.5328 169.145 25.8058 168.857 26.011C168.095 26.4996 167.199 26.7349 166.296 26.683C165.277 26.7215 164.269 26.4593 163.398 25.9292C162.654 25.4602 162.121 24.7214 161.909 23.8677L159.185 24.2945C159.298 24.9991 159.555 25.6728 159.939 26.2742C160.324 26.8756 160.827 27.3918 161.419 27.791C162.806 28.6726 164.426 29.1157 166.069 29.0624C167.735 29.161 169.387 28.6938 170.755 27.7365C171.308 27.3111 171.751 26.7592 172.046 26.127C172.342 25.4949 172.481 24.801 172.453 24.1038C172.478 23.373 172.299 22.6496 171.935 22.015C171.498 21.3788 170.9 20.8709 170.201 20.5438Z" fill="#3F4F73"/>
<path id="Vector_8" d="M185.259 25.8565C184.437 26.3479 183.493 26.5996 182.535 26.5831C181.85 26.6249 181.165 26.5063 180.535 26.2367C179.904 25.9671 179.345 25.5539 178.902 25.0301C178.121 23.9785 177.692 22.7072 177.676 21.3974H189.918C190.027 19.7348 189.776 18.0683 189.183 16.5114C188.685 15.2188 187.796 14.1138 186.64 13.351C185.415 12.5823 183.989 12.1966 182.544 12.243C181.127 12.2102 179.729 12.5684 178.502 13.2783C177.346 13.9899 176.416 15.017 175.823 16.239C175.15 17.656 174.821 19.2116 174.861 20.7798C174.826 22.2942 175.163 23.7939 175.842 25.1482C176.453 26.3578 177.398 27.3666 178.566 28.0543C179.812 28.7541 181.224 29.1025 182.653 29.0624C184.13 29.0797 185.582 28.6765 186.839 27.8999C188.088 27.1256 189.065 25.9833 189.637 24.6305L187.112 23.7223C186.719 24.601 186.074 25.3436 185.259 25.8565ZM178.902 16.1663C179.356 15.6356 179.927 15.2181 180.57 14.9469C181.213 14.6757 181.911 14.5584 182.607 14.6043C183.252 14.5584 183.899 14.6661 184.494 14.9187C185.089 15.1713 185.616 15.5616 186.031 16.0573C186.699 17.0056 187.087 18.123 187.148 19.2814H177.703C177.797 18.1514 178.21 17.0712 178.893 16.1663H178.902Z" fill="#3F4F73"/>
<path id="Vector_9" d="M16.4021 0.526743L0.154866 35.3552C0.120323 35.4239 0.104165 35.5004 0.107966 35.5771C0.111768 35.6539 0.1354 35.7284 0.176558 35.7934C0.217717 35.8583 0.274998 35.9115 0.342818 35.9477C0.410639 35.9839 0.486685 36.0019 0.563544 36H7.67454C7.8467 35.9987 8.01494 35.9485 8.15966 35.8552C8.30437 35.762 8.4196 35.6295 8.4919 35.4733L24.7482 0.644806C24.7801 0.575877 24.7942 0.500048 24.7892 0.424258C24.7842 0.348469 24.7603 0.275141 24.7197 0.210988C24.679 0.146835 24.6229 0.0939058 24.5565 0.057046C24.4901 0.0201862 24.4155 0.00057327 24.3395 2.7815e-06H17.2285C17.0548 -0.000427046 16.8846 0.0489676 16.7382 0.142329C16.5917 0.235691 16.475 0.369103 16.4021 0.526743Z" fill="#2C60EA"/>
<path id="Vector_10" d="M27.7544 0.526776L11.4981 35.3552C11.4662 35.4242 11.452 35.5 11.457 35.5758C11.462 35.6516 11.4859 35.7249 11.5266 35.789C11.5673 35.8532 11.6234 35.9061 11.6898 35.943C11.7562 35.9799 11.8308 35.9995 11.9067 36H13.6232C13.7969 36.0005 13.9671 35.9511 14.1135 35.8577C14.26 35.7643 14.3767 35.6309 14.4496 35.4733L30.7059 0.644839C30.7382 0.575212 30.7522 0.498553 30.7468 0.422019C30.7414 0.345486 30.7167 0.271573 30.6749 0.207181C30.6332 0.142789 30.5759 0.0900182 30.5082 0.0537945C30.4406 0.0175707 30.3649 -0.000924442 30.2882 3.55534e-05H28.5717C28.3996 0.00133318 28.2313 0.0515385 28.0866 0.144799C27.9419 0.238059 27.8267 0.370533 27.7544 0.526776Z" fill="#2C60EA"/>
<path id="Vector_11" d="M33.5571 0.52688L17.3008 35.3553C17.2689 35.4243 17.2548 35.5001 17.2598 35.5759C17.2648 35.6517 17.2887 35.725 17.3293 35.7892C17.37 35.8533 17.4261 35.9062 17.4925 35.9431C17.5589 35.98 17.6335 35.9996 17.7095 36.0001H19.4259C19.5996 36.0006 19.7698 35.9512 19.9163 35.8578C20.0628 35.7645 20.1794 35.631 20.2524 35.4734L36.4996 0.644942C36.5341 0.576255 36.5503 0.499791 36.5465 0.423001C36.5427 0.346212 36.519 0.271717 36.4779 0.206778C36.4367 0.141839 36.3794 0.0886717 36.3116 0.0524575C36.2438 0.0162434 36.1678 -0.00178181 36.0909 0.000138916H34.3745C34.2023 0.00143654 34.034 0.0516419 33.8893 0.144902C33.7446 0.238163 33.6294 0.370636 33.5571 0.52688Z" fill="#2C60EA"/>
<path id="Vector_12" d="M39.3608 0.527207L23.1045 35.3557C23.0726 35.4246 23.0585 35.5004 23.0635 35.5762C23.0685 35.652 23.0924 35.7253 23.133 35.7895C23.1737 35.8536 23.2298 35.9066 23.2962 35.9434C23.3626 35.9803 23.4372 35.9999 23.5132 36.0005H25.2296C25.4033 36.0009 25.5735 35.9515 25.72 35.8581C25.8665 35.7648 25.9831 35.6314 26.0561 35.4737L42.3033 0.645269C42.3383 0.575883 42.3544 0.498551 42.3502 0.420966C42.346 0.343381 42.3216 0.268246 42.2794 0.203037C42.2371 0.137829 42.1785 0.0848179 42.1094 0.0492787C42.0403 0.0137396 41.9631 -0.0030893 41.8855 0.000466248H40.1782C40.006 0.00176388 39.8378 0.0519692 39.693 0.14523C39.5483 0.23849 39.4331 0.370963 39.3608 0.527207Z" fill="#2C60EA"/>
</g>
</g>
</g>
<defs>
<clipPath id="clip0_242_3827">
<rect width="189.781" height="36" fill="white" transform="translate(0.109375)"/>
</clipPath>
</defs>
</svg>
