<svg xmlns="http://www.w3.org/2000/svg" width="18" height="18" viewBox="0 0 18 18" fill="none">
<path d="M1.6875 9.57C1.6875 10.77 2.52975 11.8155 3.71775 11.9903C4.533 12.1103 5.3565 12.2025 6.1875 12.267V15.75L9.2445 12.693C9.45182 12.487 9.73009 12.3681 10.0222 12.3608C11.4483 12.3213 12.8708 12.1976 14.2822 11.9903C15.4702 11.8155 16.3125 10.7708 16.3125 9.56925V5.05575C16.3125 3.85425 15.4702 2.8095 14.2822 2.63475C12.5332 2.37804 10.7678 2.24944 9 2.25C7.206 2.25 5.442 2.38125 3.71775 2.63475C2.52975 2.8095 1.6875 3.855 1.6875 5.05575V9.56925V9.57Z" stroke="#747684" stroke-width="1.5" stroke-linecap="round" stroke-linejoin="round"/>
</svg>