<svg width="15" height="4" viewBox="0 0 15 4" fill="none" xmlns="http://www.w3.org/2000/svg">
<g id="Group">
<path id="Vector" d="M3.06047 2C3.06047 1.58579 2.71967 1.25 2.29928 1.25C1.87888 1.25 1.53809 1.58579 1.53809 2C1.53809 2.41421 1.87888 2.75 2.29928 2.75C2.71967 2.75 3.06047 2.41421 3.06047 2Z" stroke="#747684" stroke-width="1.5" stroke-linecap="round" stroke-linejoin="round"/>
<path id="Vector_2" d="M8.6425 2C8.6425 1.58579 8.3017 1.25 7.88131 1.25C7.46091 1.25 7.12012 1.58579 7.12012 2C7.12012 2.41421 7.46091 2.75 7.88131 2.75C8.3017 2.75 8.6425 2.41421 8.6425 2Z" stroke="#747684" stroke-width="1.5" stroke-linecap="round" stroke-linejoin="round"/>
<path id="Vector_3" d="M14.2245 2C14.2245 1.58579 13.8837 1.25 13.4633 1.25C13.0429 1.25 12.7021 1.58579 12.7021 2C12.7021 2.41421 13.0429 2.75 13.4633 2.75C13.8837 2.75 14.2245 2.41421 14.2245 2Z" stroke="#747684" stroke-width="1.5" stroke-linecap="round" stroke-linejoin="round"/>
</g>
</svg>
