<svg xmlns="http://www.w3.org/2000/svg" width="60" height="60" viewBox="0 0 60 60" fill="none">
<rect width="60" height="60" rx="15" fill="#EBEDFF"/>
<path d="M43.0012 34.7417H41.6377C41.6321 34.7307 41.6265 34.7197 41.6265 34.7033L42.586 33.7643C42.7768 33.5831 42.8834 33.3359 42.8834 33.0724C42.8834 32.8088 42.7768 32.5617 42.5916 32.386L41.2617 31.079C41.0709 30.8923 40.824 30.788 40.5547 30.788C40.2854 30.788 40.0385 30.8923 39.8477 31.079L38.8826 32.0235C38.8713 32.018 38.8601 32.0126 38.8489 32.0071V30.6727C38.8489 30.1345 38.4 29.6952 37.8501 29.6952H35.9647C35.4148 29.6952 34.9715 30.129 34.9715 30.6727V32.0071C34.9603 32.0126 34.9491 32.018 34.9379 32.0235L33.9727 31.079C33.58 30.6946 32.9515 30.6946 32.5587 31.079L31.2232 32.386C31.0381 32.5672 30.9315 32.8143 30.9315 33.0724C30.9315 33.3359 31.0325 33.5776 31.2232 33.7643L32.1884 34.7088C32.1828 34.7197 32.1772 34.7307 32.1715 34.7472H30.808C30.2581 34.7472 29.8092 35.181 29.8092 35.7247V37.5697C29.8092 38.1024 30.2525 38.5417 30.808 38.5417H32.1715C32.1772 38.5527 32.1828 38.5636 32.1884 38.5746L31.2176 39.5191C30.8361 39.898 30.8361 40.5185 31.2232 40.8974L32.5643 42.2044C32.9571 42.5887 33.5743 42.5887 33.9727 42.2044L34.9379 41.2599C34.9491 41.2653 34.9547 41.2708 34.9659 41.2708V42.6052C34.9659 42.9072 35.1118 43.2038 35.3475 43.3685C35.5271 43.5058 35.7403 43.5827 35.9591 43.5827H37.8445C38.3944 43.5827 38.8433 43.1434 38.8433 42.6052V41.2708C38.8545 41.2653 38.8657 41.2599 38.877 41.2599L39.8421 42.2044C40.218 42.5723 40.8745 42.5723 41.2505 42.2044L42.5804 40.9029C42.7711 40.7162 42.8778 40.4691 42.8778 40.211C42.8778 39.9474 42.7768 39.7058 42.586 39.5191L41.6265 38.5691C41.6321 38.5581 41.6377 38.5472 41.6377 38.5362H43.0012C43.5511 38.5362 44 38.0969 44 37.5642V35.7192C44 35.1755 43.5511 34.7417 43.0012 34.7417ZM38.905 36.6362C38.905 37.7125 38.0072 38.5911 36.9074 38.5911C36.6549 38.5911 36.4192 38.5472 36.1892 38.4593C35.5607 38.2232 35.0838 37.6741 34.9491 37.0316C34.921 36.8943 34.9098 36.7625 34.9098 36.6362C34.9098 36.5044 34.921 36.3726 34.9491 36.2408C35.0838 35.5984 35.5607 35.0492 36.1948 34.8131C36.4192 34.7252 36.6605 34.6868 36.9074 34.6868C38.0072 34.6868 38.905 35.5599 38.905 36.6362ZM33.2657 43.385C32.9122 43.385 32.5756 43.2861 32.2782 43.1104H18.0537C17.4253 43.1104 16.9146 42.6107 16.9146 41.9957V19.8878C16.9146 19.2728 17.4253 18.7731 18.0537 18.7731H20.4721V19.3716H18.0537C17.7619 19.3716 17.5206 19.6023 17.5206 19.8933V42.0012C17.5206 42.2867 17.7563 42.5228 18.0537 42.5228H31.5824L30.5723 41.5344C29.9719 40.9414 29.8597 40.0518 30.2301 39.3489C29.4557 39.1073 28.8946 38.3989 28.8946 37.5697V35.7137C28.8946 34.879 29.4557 34.1706 30.2244 33.929C30.0842 33.6654 30.0112 33.3744 30.0112 33.0669C30.0112 32.5672 30.2076 32.0949 30.5667 31.7435L31.9022 30.4366C32.2613 30.0851 32.7439 29.8874 33.2545 29.8874C33.5631 29.8874 33.8661 29.9588 34.1355 30.0961C34.2758 29.6678 34.5675 29.3108 34.9491 29.0802V19.8878C34.9491 19.6023 34.7134 19.3662 34.416 19.3662H31.9976V18.7676H34.416C35.0445 18.7676 35.5551 19.2673 35.5551 19.8823V28.8441C35.6842 28.8166 35.8132 28.8002 35.9479 28.8002H36.4697V19.8878C36.4697 18.7786 35.5495 17.878 34.416 17.878H31.5431H31.5375C31.4982 17.6584 31.3074 17.4881 31.0717 17.4881H29.5174V16.6315C29.5174 16.2801 29.2313 16 28.8721 16H23.6032C23.2441 16 22.9579 16.2855 22.9579 16.6315V17.4826H21.4036C21.1679 17.4826 20.9772 17.6529 20.9379 17.8725H20.9323H18.0537C16.9202 17.8725 16 18.7731 16 19.8823V41.9902C16 43.0994 16.9202 44 18.0537 44H34.4273C34.517 44 34.6012 43.9945 34.691 43.9835C34.4385 43.7639 34.2477 43.4838 34.1467 43.1708C33.8717 43.3081 33.5744 43.385 33.2657 43.385ZM20.7639 30.3981H22.7784V28.9429H22.2228V26.4499H23.188V24.506H22.5371V22.0129H30.4096V24.506H29.7587V26.4499H30.7238V28.9429H28.1764V26.4499H29.1583V24.506H23.7996V26.4499H24.7647V28.9429H23.3844V30.3981H25.3988C25.5671 30.3981 25.7018 30.5299 25.7018 30.6946V31.8258H26.6669V34.3189H24.1194V31.8258H25.0846V30.9967H21.0669V31.8258H22.0321V34.3189H19.4902V31.8258H20.4609V30.6946C20.4609 30.5299 20.5956 30.3981 20.7639 30.3981Z" fill="#4153EE"/>
</svg>