<svg xmlns="http://www.w3.org/2000/svg" width="15" height="5" viewBox="0 0 15 5" fill="none">
<path d="M2.46 2.50001C2.46 2.05991 2.10344 1.70315 1.66359 1.70315C1.22375 1.70315 0.867187 2.05991 0.867187 2.50001C0.867187 2.94011 1.22375 3.29687 1.66359 3.29687C2.10344 3.29687 2.46 2.94011 2.46 2.50001Z" stroke="#747684" stroke-width="1.5" stroke-linecap="round" stroke-linejoin="round"/>
<path d="M8.29984 2.50001C8.29984 2.05991 7.94328 1.70315 7.50344 1.70315C7.06359 1.70315 6.70703 2.05991 6.70703 2.50001C6.70703 2.94011 7.06359 3.29687 7.50344 3.29687C7.94328 3.29687 8.29984 2.94011 8.29984 2.50001Z" stroke="#747684" stroke-width="1.5" stroke-linecap="round" stroke-linejoin="round"/>
<path d="M14.1397 2.50001C14.1397 2.05991 13.7831 1.70315 13.3433 1.70315C12.9034 1.70315 12.5469 2.05991 12.5469 2.50001C12.5469 2.94011 12.9034 3.29687 13.3433 3.29687C13.7831 3.29687 14.1397 2.94011 14.1397 2.50001Z" stroke="#747684" stroke-width="1.5" stroke-linecap="round" stroke-linejoin="round"/>
</svg>