<svg xmlns="http://www.w3.org/2000/svg" width="18" height="18" viewBox="0 0 18 18" fill="none">
<path d="M16.3125 5.0625V12.9375C16.3125 13.3851 16.1347 13.8143 15.8182 14.1307C15.5018 14.4472 15.0726 14.625 14.625 14.625H3.375C2.92745 14.625 2.49822 14.4472 2.18176 14.1307C1.86529 13.8143 1.6875 13.3851 1.6875 12.9375V5.0625M16.3125 5.0625C16.3125 4.61495 16.1347 4.18573 15.8182 3.86926C15.5018 3.55279 15.0726 3.375 14.625 3.375H3.375C2.92745 3.375 2.49822 3.55279 2.18176 3.86926C1.86529 4.18573 1.6875 4.61495 1.6875 5.0625M16.3125 5.0625V5.24475C16.3125 5.53286 16.2388 5.81618 16.0983 6.06772C15.9578 6.31926 15.7553 6.53065 15.51 6.68175L9.885 10.143C9.61891 10.3069 9.31252 10.3937 9 10.3937C8.68748 10.3937 8.38109 10.3069 8.115 10.143L2.49 6.6825C2.24469 6.5314 2.04215 6.32001 1.90168 6.06847C1.7612 5.81693 1.68747 5.53361 1.6875 5.2455V5.0625" stroke="#747684" stroke-width="1.5" stroke-linecap="round" stroke-linejoin="round"/>
</svg>