<svg xmlns="http://www.w3.org/2000/svg" width="25" height="24" viewBox="0 0 25 24" fill="none">
  <path d="M16.051 11.5771C16.0277 12.5959 14.5181 13.4184 12.6569 13.4184C10.7964 13.4184 9.28608 12.5959 9.264 11.5771C6.4176 11.8371 4.18848 11.5771 4.18848 17.1439C4.18848 19.8293 6.08232 20.0515 8.6076 20.064C8.70744 19.9567 8.81832 19.8523 8.9448 19.7511C9.54072 19.2759 10.0541 19.0543 10.56 19.0543C11.0674 19.0543 11.436 19.2675 11.7113 19.4974C11.8742 19.3745 12.1157 19.1712 12.4534 18.8359C12.793 18.4995 12.9996 18.2583 13.1251 18.0919C12.6295 17.4605 12.3744 16.5948 13.3946 15.3353C13.8715 14.7456 14.4115 14.4468 14.9995 14.4468C15.805 14.4468 16.337 15.0111 16.6598 15.3531C16.699 15.3953 16.7371 15.4354 16.7729 15.4714C17.6726 16.3781 17.2889 18.2422 15.9463 20.0635C16.1076 20.064 16.2713 20.0645 16.4287 20.0645C19.0922 20.0645 21.127 19.9277 21.127 17.1439C21.1267 11.5771 18.8966 11.8366 16.051 11.5771Z" fill="#2C60EA"/>
  <path d="M12.6579 12.3072C15.2328 12.3072 17.3194 8.43572 17.3194 5.86196C17.3194 3.28724 15.2326 1.2002 12.6579 1.2002C10.0834 1.2002 7.99658 3.28724 7.99658 5.86196C7.99658 8.43596 10.0836 12.3072 12.6579 12.3072Z" fill="#2C60EA"/>
  <path d="M16.1775 16.0628C16.1348 16.0193 16.0911 15.9735 16.0462 15.9257C15.7779 15.6411 15.4438 15.2861 14.9996 15.2861C14.6722 15.2861 14.3607 15.4753 14.0466 15.8633C13.2138 16.8917 13.5116 17.3302 14.0226 17.8385L14.0998 17.9151C14.144 17.9597 14.109 18.134 13.9266 18.4112C13.7478 18.6843 13.4514 19.0275 13.0431 19.4321C12.0769 20.3909 11.6955 20.4946 11.5765 20.4946C11.5366 20.4946 11.5261 20.4831 11.5194 20.4766L11.4428 20.3993C11.1999 20.1509 10.9486 19.8939 10.5598 19.8939C10.2546 19.8939 9.90633 20.0576 9.46737 20.4077C9.08985 20.7094 8.89953 21.0094 8.88537 21.326C8.86473 21.7849 9.22617 22.1305 9.51489 22.4084C9.56337 22.4537 9.60897 22.4981 9.65217 22.5418C9.82017 22.7105 10.087 22.801 10.4235 22.801C11.2294 22.801 12.7273 22.2488 14.2959 20.6926C16.2176 18.7837 16.8301 16.7206 16.1775 16.0628Z" fill="#2C60EA"/>
</svg>