<svg xmlns="http://www.w3.org/2000/svg" width="60" height="60" viewBox="0 0 60 60" fill="none">
<rect width="60" height="60" rx="15" fill="#FFE3F2"/>
<path d="M16 42.5057C16 42.9021 16.1569 43.2822 16.4362 43.5625C16.7155 43.8428 17.0944 44.0003 17.4894 44.0003H42.5106C42.9056 44.0003 43.2845 43.8428 43.5638 43.5625C43.8431 43.2822 44 42.9021 44 42.5057V39.917H16V42.5057ZM41.0213 41.6537H42.4123C42.4913 41.6537 42.5671 41.6852 42.623 41.7413C42.6788 41.7973 42.7102 41.8734 42.7102 41.9527C42.7102 42.0319 42.6788 42.108 42.623 42.164C42.5671 42.2201 42.4913 42.2516 42.4123 42.2516H41.0213C40.9423 42.2516 40.8665 42.2201 40.8106 42.164C40.7548 42.108 40.7234 42.0319 40.7234 41.9527C40.7234 41.8734 40.7548 41.7973 40.8106 41.7413C40.8665 41.6852 40.9423 41.6537 41.0213 41.6537ZM20.6677 41.6537H22.6247V41.4056C22.6247 41.3263 22.6561 41.2503 22.7119 41.1943C22.7678 41.1382 22.8436 41.1067 22.9226 41.1067C23.0016 41.1067 23.0773 41.1382 23.1332 41.1943C23.189 41.2503 23.2204 41.3263 23.2204 41.4056V41.6537H39.3323C39.4113 41.6537 39.4871 41.6852 39.543 41.7413C39.5988 41.7973 39.6302 41.8734 39.6302 41.9527C39.6302 42.0319 39.5988 42.108 39.543 42.164C39.4871 42.2201 39.4113 42.2516 39.3323 42.2516H23.2204V42.4997C23.2204 42.579 23.189 42.655 23.1332 42.7111C23.0773 42.7671 23.0016 42.7986 22.9226 42.7986C22.8436 42.7986 22.7678 42.7671 22.7119 42.7111C22.6561 42.655 22.6247 42.579 22.6247 42.4997V42.2516H20.6677C20.5887 42.2516 20.5129 42.2201 20.457 42.164C20.4012 42.108 20.3698 42.0319 20.3698 41.9527C20.3698 41.8734 20.4012 41.7973 20.457 41.7413C20.5129 41.6852 20.5887 41.6537 20.6677 41.6537ZM18.6034 41.2562C18.6034 41.1769 18.6348 41.1009 18.6906 41.0448C18.7465 40.9887 18.8223 40.9572 18.9013 40.9572C18.9803 40.9572 19.056 40.9887 19.1119 41.0448C19.1678 41.1009 19.1991 41.1769 19.1991 41.2562V42.6491C19.1991 42.7284 19.1678 42.8045 19.1119 42.8605C19.056 42.9166 18.9803 42.9481 18.9013 42.9481C18.8223 42.9481 18.7465 42.9166 18.6906 42.8605C18.6348 42.8045 18.6034 42.7284 18.6034 42.6491V41.2562ZM17.4119 41.2562C17.4119 41.1769 17.4433 41.1009 17.4992 41.0448C17.555 40.9887 17.6308 40.9572 17.7098 40.9572C17.7888 40.9572 17.8646 40.9887 17.9204 41.0448C17.9763 41.1009 18.0077 41.1769 18.0077 41.2562V42.6491C18.0077 42.7284 17.9763 42.8045 17.9204 42.8605C17.8646 42.9166 17.7888 42.9481 17.7098 42.9481C17.6308 42.9481 17.555 42.9166 17.4992 42.8605C17.4433 42.8045 17.4119 42.7284 17.4119 42.6491V41.2562Z" fill="#FF69BB"/>
<path d="M31.8375 30.4589L29.5171 28.7999C29.4916 28.7826 29.4615 28.7734 29.4307 28.7734C29.4 28.7734 29.3699 28.7826 29.3443 28.7999C29.3168 28.8128 29.2936 28.8335 29.2777 28.8596C29.2618 28.8856 29.2539 28.9158 29.255 28.9463V32.2345C29.255 32.2648 29.2633 32.2945 29.2791 32.3204C29.2949 32.3462 29.3174 32.3672 29.3443 32.3809C29.3706 32.3962 29.4004 32.4042 29.4307 32.4042C29.4611 32.4042 29.4908 32.3962 29.5171 32.3809L31.8346 30.7309C31.8555 30.7156 31.8725 30.6956 31.8842 30.6725C31.896 30.6494 31.9021 30.6238 31.9021 30.5979C31.9021 30.5719 31.896 30.5463 31.8842 30.5232C31.8725 30.5001 31.8555 30.4801 31.8346 30.4649L31.8375 30.4589Z" fill="#FF69BB"/>
<path d="M30.0001 18.9805C29.4444 18.9786 28.9061 19.1751 28.4816 19.5349C28.057 19.8947 27.7738 20.3943 27.6826 20.9444H32.3026C32.2118 20.3968 31.9308 19.8992 31.5093 19.5397C31.0879 19.1803 30.5532 18.9821 30.0001 18.9805Z" fill="#FF69BB"/>
<path d="M29.9999 18.3824C30.7135 18.3806 31.4034 18.6396 31.9407 19.1111C32.4779 19.5825 32.8257 20.2342 32.919 20.9442H35.3437V20.6632L34.5246 20.4988C34.4694 20.4874 34.4186 20.4606 34.378 20.4215C34.3374 20.3823 34.3087 20.3324 34.2952 20.2776C34.1985 19.9134 34.0564 19.5629 33.8722 19.2343C33.8451 19.1845 33.8326 19.128 33.8363 19.0714C33.84 19.0147 33.8597 18.9603 33.8931 18.9145L34.3905 18.2389L33.2944 17.0851L32.5973 17.5574C32.5493 17.5883 32.4935 17.6047 32.4365 17.6047C32.3795 17.6047 32.3236 17.5883 32.2756 17.5574C31.9529 17.3616 31.6065 17.2079 31.245 17.1C31.1904 17.0841 31.1415 17.0529 31.104 17.01C31.0665 16.9671 31.0421 16.9143 31.0335 16.8579L30.9084 16.0299L29.3178 16L29.1509 16.825C29.1401 16.8796 29.1143 16.9301 29.0764 16.9708C29.0385 17.0114 28.99 17.0407 28.9365 17.0552L28.8829 17.0701C28.5323 17.1606 28.1941 17.2942 27.8761 17.4677C27.8262 17.4935 27.7702 17.5046 27.7143 17.4999C27.6585 17.4951 27.6051 17.4747 27.5603 17.4408L26.8871 16.9446L25.7373 18.0387L26.1961 18.7381C26.2268 18.7863 26.2432 18.8423 26.2432 18.8995C26.2432 18.9568 26.2268 19.0128 26.1961 19.061C26.1216 19.1835 26.0501 19.318 25.9756 19.4735C25.8826 19.6749 25.804 19.8827 25.7403 20.0952C25.7247 20.1496 25.694 20.1984 25.6518 20.236C25.6096 20.2736 25.5577 20.2984 25.502 20.3075L24.668 20.439V20.9352H27.0718C27.1674 20.2253 27.5173 19.5746 28.0562 19.1048C28.5951 18.6349 29.286 18.3781 29.9999 18.3824Z" fill="#FF69BB"/>
<path d="M42.5106 21.542H17.4894C17.0944 21.542 16.7155 21.6995 16.4362 21.9798C16.1569 22.26 16 22.6402 16 23.0366V39.3189H44V23.0366C44 22.6402 43.8431 22.26 43.5638 21.9798C43.2845 21.6995 42.9056 21.542 42.5106 21.542ZM20.0183 25.5745C19.9625 25.6301 19.887 25.6614 19.8083 25.6614C19.7296 25.6614 19.6541 25.6301 19.5983 25.5745L19.0353 25.0095L18.4723 25.5745C18.4448 25.6023 18.412 25.6245 18.3759 25.6396C18.3398 25.6548 18.301 25.6627 18.2619 25.6628C18.2228 25.6629 18.184 25.6553 18.1478 25.6404C18.1116 25.6255 18.0786 25.6036 18.0509 25.576C18.0231 25.5483 18.001 25.5154 17.9859 25.4791C17.9708 25.4429 17.963 25.4041 17.9628 25.3648C17.9627 25.3255 17.9702 25.2866 17.9851 25.2502C17.9999 25.2139 18.0218 25.1808 18.0494 25.153L18.6123 24.588L18.0494 24.0171C18.0184 23.99 17.9933 23.9569 17.9757 23.9197C17.9581 23.8825 17.9483 23.842 17.9471 23.8008C17.9458 23.7597 17.953 23.7187 17.9682 23.6804C17.9835 23.6422 18.0064 23.6075 18.0357 23.5786C18.0649 23.5497 18.0998 23.5271 18.1381 23.5124C18.1764 23.4976 18.2173 23.491 18.2583 23.4929C18.2993 23.4947 18.3395 23.5051 18.3763 23.5233C18.4132 23.5415 18.4459 23.5671 18.4723 23.5986L19.0353 24.1635L19.5983 23.5986C19.6541 23.5429 19.7296 23.5117 19.8083 23.5117C19.887 23.5117 19.9625 23.5429 20.0183 23.5986C20.0462 23.6264 20.0684 23.6594 20.0835 23.6959C20.0986 23.7323 20.1064 23.7714 20.1064 23.8108C20.1064 23.8503 20.0986 23.8893 20.0835 23.9258C20.0684 23.9622 20.0462 23.9953 20.0183 24.023L19.4553 24.588L20.0183 25.153C20.0738 25.209 20.1049 25.2847 20.1049 25.3637C20.1049 25.4427 20.0738 25.5185 20.0183 25.5745ZM30 36.1713C28.9 36.1713 27.8246 35.8439 26.91 35.2305C25.9954 34.6171 25.2826 33.7453 24.8618 32.7254C24.4409 31.7054 24.331 30.5832 24.5458 29.5005C24.7606 28.4178 25.2906 27.4234 26.0686 26.643C26.8467 25.8627 27.8379 25.3314 28.9169 25.1164C29.9959 24.9014 31.1141 25.0123 32.1303 25.4352C33.1464 25.858 34.0148 26.5738 34.6255 27.492C35.2362 28.4101 35.5619 29.4894 35.5613 30.5934C35.5589 32.0725 34.9721 33.4903 33.9296 34.536C32.8871 35.5816 31.4739 36.1697 30 36.1713Z" fill="#FF69BB"/>
<path d="M30.0007 25.6104C29.0186 25.6104 28.0586 25.9026 27.242 26.4501C26.4254 26.9977 25.789 27.7759 25.4131 28.6865C25.0373 29.597 24.939 30.5989 25.1306 31.5655C25.3222 32.5321 25.7951 33.42 26.4895 34.1169C27.184 34.8138 28.0687 35.2884 29.032 35.4807C29.9952 35.673 30.9936 35.5743 31.9009 35.1971C32.8082 34.82 33.5838 34.1813 34.1294 33.3618C34.675 32.5424 34.9662 31.5789 34.9662 30.5934C34.9646 29.2723 34.441 28.0058 33.5101 27.0716C32.5792 26.1374 31.3171 25.6119 30.0007 25.6104ZM32.1811 31.2151L29.8637 32.8652C29.7347 32.9565 29.5807 33.0056 29.4228 33.0057C29.3013 33.0065 29.1814 32.9767 29.0743 32.919C28.9495 32.8562 28.8447 32.7597 28.7715 32.6403C28.6984 32.521 28.6598 32.3835 28.6603 32.2434V28.9553C28.6622 28.8171 28.7014 28.682 28.7737 28.5644C28.8461 28.4468 28.9487 28.351 29.0709 28.2872C29.1931 28.2235 29.3302 28.1941 29.4677 28.2023C29.6052 28.2104 29.7379 28.2558 29.8518 28.3335L32.1692 29.9836C32.2688 30.0536 32.35 30.1467 32.4061 30.2549C32.4623 30.3631 32.4916 30.4833 32.4916 30.6053C32.4916 30.7273 32.4623 30.8476 32.4061 30.9558C32.35 31.064 32.2688 31.1571 32.1692 31.2271L32.1811 31.2151Z" fill="#FF69BB"/>
</svg>