<svg xmlns="http://www.w3.org/2000/svg" width="20" height="20" viewBox="0 0 20 20" fill="none">
<path d="M5.81154 0H4.18983C4.11519 0 4.05469 0.0589131 4.05469 0.131586V3.28965C4.05469 3.36232 4.11519 3.42124 4.18983 3.42124H5.81154C5.88618 3.42124 5.94668 3.36232 5.94668 3.28965V0.131586C5.94668 0.0589131 5.88618 0 5.81154 0Z" fill="#2C60EA"/>
<path d="M18.7578 2.36719H16.7577V3.20934C16.7577 3.70937 16.3793 4.20939 15.8657 4.20939H14.271C14.0049 4.19103 13.7544 4.07977 13.5658 3.89606C13.3771 3.71234 13.2628 3.4685 13.244 3.20934V2.36719H6.75712V3.20934C6.73826 3.4685 6.624 3.71234 6.43532 3.89606C6.24663 4.07977 5.99621 4.19103 5.73004 4.20939H4.13536C3.62182 4.20939 3.24342 3.70937 3.24342 3.20934V2.36719H1.24331C0.911102 2.37407 0.594888 2.50742 0.362467 2.73864C0.130047 2.96987 -7.51871e-05 3.28056 3.25934e-08 3.6041V6.84111H20.0011V3.6041C20.0012 3.28056 19.871 2.96987 19.6386 2.73864C19.4062 2.50742 19.09 2.37407 18.7578 2.36719Z" fill="#2C60EA"/>
<path d="M15.8115 0H14.1898C14.1152 0 14.0547 0.0589131 14.0547 0.131586V3.28965C14.0547 3.36232 14.1152 3.42124 14.1898 3.42124H15.8115C15.8862 3.42124 15.9467 3.36232 15.9467 3.28965V0.131586C15.9467 0.0589131 15.8862 0 15.8115 0Z" fill="#2C60EA"/>
<path d="M7.97233 14.6872L7.59393 16.8189L9.53998 15.8189L9.72918 15.7662L9.91838 15.8189L11.8644 16.8189L11.486 14.6872C11.4789 14.626 11.4848 14.564 11.5034 14.5052C11.522 14.4463 11.5529 14.3918 11.5941 14.3451L13.1888 12.8713L10.9995 12.5555C10.9364 12.5457 10.8766 12.5215 10.8249 12.485C10.7733 12.4484 10.7312 12.4004 10.7022 12.345L9.72918 10.4238L8.75615 12.345C8.72714 12.4004 8.68508 12.4484 8.63341 12.485C8.58174 12.5215 8.52193 12.5457 8.45884 12.5555L6.26953 12.8713L7.86421 14.3451C7.90545 14.3918 7.93634 14.4463 7.95494 14.5052C7.97354 14.564 7.97946 14.626 7.97233 14.6872Z" fill="#2C60EA"/>
<path d="M0 18.8157C0.00706774 19.1322 0.141173 19.4334 0.373577 19.6547C0.605981 19.8761 0.918194 20 1.24331 19.9999H18.7578C19.0829 20 19.3951 19.8761 19.6275 19.6547C19.8599 19.4334 19.994 19.1322 20.0011 18.8157V7.63086H0V18.8157ZM5.0273 12.4732C5.04839 12.4029 5.0905 12.3404 5.14827 12.2935C5.20604 12.2466 5.27684 12.2176 5.35164 12.2101L8.13557 11.789L9.37889 9.34148C9.41443 9.28135 9.46563 9.2314 9.52732 9.19667C9.589 9.16195 9.659 9.14366 9.73026 9.14366C9.80151 9.14366 9.87151 9.16195 9.93319 9.19667C9.99488 9.2314 10.0461 9.28135 10.0816 9.34148L11.3249 11.789L14.1089 12.2101C14.1837 12.2176 14.2545 12.2466 14.3122 12.2935C14.37 12.3404 14.4121 12.4029 14.4332 12.4732C14.4572 12.5421 14.4597 12.6163 14.4405 12.6865C14.4213 12.7568 14.3811 12.8199 14.3251 12.868L12.325 14.7628L12.8115 17.4735C12.8207 17.5434 12.8105 17.6145 12.782 17.6792C12.7535 17.744 12.7077 17.8002 12.6493 17.8419C12.5783 17.8916 12.4935 17.9191 12.4061 17.9209C12.3385 17.9271 12.2709 17.9083 12.2169 17.8683L9.73026 16.605L7.24363 17.8683C7.17746 17.9075 7.1005 17.926 7.02315 17.9213C6.94581 17.9166 6.87182 17.8889 6.81118 17.8419C6.75282 17.8002 6.70701 17.744 6.67849 17.6792C6.64997 17.6145 6.63979 17.5434 6.64901 17.4735L7.13552 14.7628L5.13541 12.868C5.0794 12.8199 5.03925 12.7568 5.02001 12.6865C5.00078 12.6163 5.00331 12.5421 5.0273 12.4732Z" fill="#2C60EA"/>
</svg>