<svg xmlns="http://www.w3.org/2000/svg" width="36" height="36" viewBox="0 0 36 36" fill="none">
<path d="M10.4607 12.741H23.2465C24.1283 12.741 24.8498 11.8672 24.8498 10.7992C24.8498 9.73122 24.1283 8.85742 23.2465 8.85742H10.4607C9.57888 8.85742 8.85742 9.73122 8.85742 10.7992C8.85742 11.8672 9.57888 12.741 10.4607 12.741Z" fill="#747684"/>
<path d="M23.2064 24.9746H10.4607C9.57888 24.9746 8.85742 25.8484 8.85742 26.9164C8.85742 27.9843 9.57888 28.8581 10.4607 28.8581H23.2465C24.1283 28.8581 24.8498 27.9843 24.8498 26.9164C24.8498 25.8484 24.0882 24.9746 23.2064 24.9746Z" fill="#747684"/>
<path d="M27.2146 16.917H10.4607C9.57888 16.917 8.85742 17.7908 8.85742 18.8588C8.85742 19.9267 9.57888 20.8005 10.4607 20.8005H27.2546C28.1364 20.8005 28.8579 19.9267 28.8579 18.8588C28.8579 17.7908 28.0963 16.917 27.2146 16.917Z" fill="#747684"/>
</svg>