<svg width="526" height="394" viewBox="0 0 526 394" fill="none" xmlns="http://www.w3.org/2000/svg">
<g clip-path="url(#clip0_17_10590)">
<path d="M547 344.938H-40V345.231H547V344.938Z" fill="#EBEBEB"/>
<path d="M469.27 357.43H430.387V357.723H469.27V357.43Z" fill="#EBEBEB"/>
<path d="M327.544 357.288H317.342V357.582H327.544V357.288Z" fill="#EBEBEB"/>
<path d="M488.183 363.827H465.654V364.121H488.183V363.827Z" fill="#EBEBEB"/>
<path d="M94.54 367.726H43.835V368.019H94.54V367.726Z" fill="#EBEBEB"/>
<path d="M90.1853 354.905H82.7539V355.199H90.1853V354.905Z" fill="#EBEBEB"/>
<path d="M251.68 356.161H180.184V356.455H251.68V356.161Z" fill="#EBEBEB"/>
<path d="M238.238 292.577H11.5502C9.77434 292.574 8.07229 291.867 6.81767 290.61C5.56305 289.353 4.8584 287.65 4.8584 285.874V-32.7848C4.87386 -34.5505 5.58533 -36.2388 6.83828 -37.4829C8.09123 -38.7271 9.78447 -39.4267 11.5502 -39.4297H238.238C240.016 -39.4297 241.721 -38.7234 242.978 -37.4663C244.235 -36.2091 244.941 -34.504 244.941 -32.7261V285.874C244.941 287.652 244.235 289.357 242.978 290.614C241.721 291.871 240.016 292.577 238.238 292.577ZM11.5502 -39.1949C9.85219 -39.1918 8.22478 -38.5151 7.0252 -37.3133C5.82563 -36.1115 5.1519 -34.4829 5.1519 -32.7848V285.874C5.1519 287.572 5.82563 289.201 7.0252 290.402C8.22478 291.604 9.85219 292.281 11.5502 292.284H238.238C239.937 292.281 241.566 291.605 242.767 290.403C243.968 289.202 244.645 287.573 244.648 285.874V-32.7848C244.645 -34.4839 243.968 -36.1126 242.767 -37.314C241.566 -38.5154 239.937 -39.1918 238.238 -39.1949H11.5502Z" fill="#EBEBEB"/>
<path d="M492.186 292.577H265.486C263.71 292.574 262.006 291.867 260.75 290.611C259.493 289.354 258.786 287.651 258.783 285.874V-32.7848C258.801 -34.5516 259.516 -36.2398 260.77 -37.4837C262.025 -38.7275 263.72 -39.4267 265.486 -39.4297H492.186C493.95 -39.4236 495.64 -38.7226 496.89 -37.4788C498.141 -36.235 498.851 -34.5485 498.866 -32.7848V285.874C498.866 287.648 498.163 289.349 496.911 290.606C495.659 291.862 493.96 292.571 492.186 292.577ZM265.486 -39.1949C263.787 -39.1918 262.159 -38.5154 260.957 -37.314C259.756 -36.1126 259.08 -34.4839 259.076 -32.7848V285.874C259.08 287.573 259.756 289.202 260.957 290.403C262.159 291.605 263.787 292.281 265.486 292.284H492.186C493.885 292.281 495.514 291.605 496.715 290.403C497.916 289.202 498.593 287.573 498.596 285.874V-32.7848C498.593 -34.4839 497.916 -36.1126 496.715 -37.314C495.514 -38.5154 493.885 -39.1918 492.186 -39.1949H265.486Z" fill="#EBEBEB"/>
<path d="M463.517 9.0918H43.4834V183.889H463.517V9.0918Z" fill="#F0F0F0"/>
<path d="M455.299 175.682V17.3213L51.7011 17.3213V175.682L455.299 175.682Z" fill="#FAFAFA"/>
<path d="M104.836 175.67L146.231 17.3096H176.755L135.36 175.67H104.836Z" fill="white"/>
<path d="M142.404 175.67L183.8 17.3096H197.453L156.058 175.67H142.404Z" fill="white"/>
<path d="M209.205 175.67L250.612 17.3096H281.136L239.729 175.67H209.205Z" fill="white"/>
<path d="M286.173 175.67L327.568 17.3096H341.233L299.826 175.67H286.173Z" fill="white"/>
<path d="M159.826 175.682V17.3213H157.736V175.682H159.826Z" fill="#E0E0E0"/>
<path d="M53.791 175.682L53.791 17.3213H51.7013L51.7013 175.682H53.791Z" fill="#E0E0E0"/>
<path d="M157.736 175.682V17.3213H149.518V175.682H157.736Z" fill="#F0F0F0"/>
<path d="M261.718 175.682V17.3213H259.628V175.682H261.718Z" fill="#E0E0E0"/>
<path d="M259.628 175.682V17.3213H251.41V175.682H259.628Z" fill="#F0F0F0"/>
<path d="M363.656 175.67V17.3096H361.567V175.67H363.656Z" fill="#E0E0E0"/>
<path d="M361.566 175.67V17.3096H353.348V175.67H361.566Z" fill="#F0F0F0"/>
<path d="M465.607 183.889V9.0918H463.517V183.889H465.607Z" fill="#E0E0E0"/>
<g opacity="0.6">
<path d="M127.107 -10.0801H38.3994V308.861H127.107V-10.0801Z" fill="#F5F5F5"/>
<path d="M86.4627 311.467H79.0312L81.121 -7.47363H84.4434L86.4627 311.467Z" fill="#E6E6E6"/>
<path d="M61.8444 311.467H58.252L59.2616 -7.47363H60.87L61.8444 311.467Z" fill="#E6E6E6"/>
<path d="M111.152 311.467H107.56L108.569 -7.47363H110.178L111.152 311.467Z" fill="#E6E6E6"/>
</g>
<g opacity="0.6">
<path d="M467.543 -10.0801H378.836V308.861H467.543V-10.0801Z" fill="#F5F5F5"/>
<path d="M413.598 311.467H406.167L408.257 -7.47363H411.579L413.598 311.467Z" fill="#E6E6E6"/>
<path d="M397.197 311.467H393.616L394.614 -7.47363H396.222L397.197 311.467Z" fill="#E6E6E6"/>
<path d="M435.153 311.467H431.572L432.582 -7.47363H434.179L435.153 311.467Z" fill="#E6E6E6"/>
<path d="M453.421 311.467H449.84L450.838 -7.47363H452.446L453.421 311.467Z" fill="#E6E6E6"/>
</g>
<path d="M341.797 342.942H358.468V247.402H341.797V342.942Z" fill="#E6E6E6"/>
<path d="M148.533 342.942H348.219V247.402L148.533 247.402V342.942Z" fill="#F0F0F0"/>
<path d="M343.733 342.942H337.722H157.149V344.938H337.722H343.733H349.85V342.942H343.733Z" fill="#E0E0E0"/>
<path opacity="0.5" d="M154.227 291.932H342.524V253.377L154.227 253.377V291.932Z" fill="#FAFAFA"/>
<path opacity="0.5" d="M154.227 336.708H342.524V298.154H154.227V336.708Z" fill="#FAFAFA"/>
<path d="M182.767 272.655C182.767 273.493 182.518 274.313 182.052 275.01C181.587 275.707 180.925 276.25 180.15 276.571C179.376 276.891 178.524 276.975 177.702 276.812C176.879 276.648 176.124 276.245 175.532 275.652C174.939 275.059 174.535 274.304 174.372 273.482C174.208 272.66 174.292 271.808 174.613 271.033C174.934 270.259 175.477 269.597 176.174 269.131C176.871 268.666 177.69 268.417 178.528 268.417C179.085 268.417 179.636 268.527 180.15 268.74C180.664 268.953 181.132 269.265 181.525 269.658C181.919 270.052 182.231 270.519 182.444 271.033C182.657 271.547 182.767 272.099 182.767 272.655Z" fill="#E0E0E0"/>
<path d="M322.449 272.655C322.449 273.493 322.2 274.313 321.735 275.01C321.269 275.707 320.607 276.25 319.833 276.571C319.058 276.891 318.206 276.975 317.384 276.812C316.562 276.648 315.807 276.245 315.214 275.652C314.621 275.059 314.218 274.304 314.054 273.482C313.891 272.66 313.974 271.808 314.295 271.033C314.616 270.259 315.159 269.597 315.856 269.131C316.553 268.666 317.373 268.417 318.211 268.417C318.767 268.417 319.318 268.527 319.833 268.74C320.347 268.953 320.814 269.265 321.208 269.658C321.601 270.052 321.913 270.519 322.126 271.033C322.339 271.547 322.449 272.099 322.449 272.655Z" fill="#E0E0E0"/>
<path d="M178.528 321.67C180.869 321.67 182.767 319.772 182.767 317.432C182.767 315.091 180.869 313.193 178.528 313.193C176.188 313.193 174.29 315.091 174.29 317.432C174.29 319.772 176.188 321.67 178.528 321.67Z" fill="#E0E0E0"/>
<path d="M322.449 317.467C322.449 318.305 322.2 319.124 321.735 319.821C321.269 320.518 320.607 321.061 319.833 321.382C319.058 321.703 318.206 321.787 317.384 321.623C316.562 321.46 315.807 321.056 315.214 320.463C314.621 319.871 314.218 319.116 314.054 318.293C313.891 317.471 313.974 316.619 314.295 315.845C314.616 315.07 315.159 314.408 315.856 313.943C316.553 313.477 317.373 313.229 318.211 313.229C319.335 313.229 320.413 313.675 321.208 314.47C322.002 315.265 322.449 316.343 322.449 317.467Z" fill="#E0E0E0"/>
<path d="M252.608 272.654C252.608 273.492 252.36 274.312 251.894 275.009C251.428 275.706 250.766 276.249 249.992 276.57C249.217 276.89 248.365 276.974 247.543 276.811C246.721 276.647 245.966 276.244 245.373 275.651C244.78 275.058 244.377 274.303 244.213 273.481C244.05 272.659 244.134 271.807 244.454 271.032C244.775 270.258 245.318 269.596 246.015 269.13C246.712 268.665 247.532 268.416 248.37 268.416C248.927 268.416 249.478 268.526 249.992 268.739C250.506 268.952 250.973 269.264 251.367 269.657C251.76 270.051 252.073 270.518 252.286 271.032C252.498 271.546 252.608 272.098 252.608 272.654Z" fill="#E0E0E0"/>
<path d="M248.37 321.67C250.711 321.67 252.608 319.772 252.608 317.432C252.608 315.091 250.711 313.193 248.37 313.193C246.029 313.193 244.132 315.091 244.132 317.432C244.132 319.772 246.029 321.67 248.37 321.67Z" fill="#E0E0E0"/>
<path d="M335.867 231.178C335.867 235.481 334.158 239.608 331.115 242.65C328.073 245.693 323.946 247.402 319.643 247.402C315.34 247.402 311.213 245.693 308.17 242.65C305.127 239.608 303.418 235.481 303.418 231.178H335.867Z" fill="#F0F0F0"/>
<path d="M207.585 228.242C207.585 233.314 205.57 238.179 201.983 241.765C198.397 245.352 193.533 247.367 188.46 247.367C183.388 247.367 178.524 245.352 174.937 241.765C171.351 238.179 169.336 233.314 169.336 228.242H207.585Z" fill="#F0F0F0"/>
<path d="M289.801 236.144C289.801 239.13 288.614 241.993 286.503 244.105C284.392 246.216 281.528 247.402 278.542 247.402C275.556 247.402 272.692 246.216 270.581 244.105C268.469 241.993 267.283 239.13 267.283 236.144H289.801Z" fill="#F0F0F0"/>
<path d="M253.5 397.955C379.215 397.955 481.127 392.005 481.127 384.666C481.127 377.326 379.215 371.376 253.5 371.376C127.785 371.376 25.873 377.326 25.873 384.666C25.873 392.005 127.785 397.955 253.5 397.955Z" fill="#F5F5F5"/>
<path d="M368.728 31.4327C366.227 28.932 361.414 19.4579 366.028 14.9967C370.641 10.5355 374.75 14.5858 375.067 16.7577C375.384 18.9296 374.539 37.2322 368.728 31.4327Z" fill="#263238"/>
<path d="M367.672 372.233L357.188 372.327L354.335 348.096L364.807 348.002L367.672 372.233Z" fill="#FF8B7B"/>
<path d="M357.176 371.117L368.61 371.012C368.821 371.015 369.026 371.085 369.194 371.211C369.363 371.338 369.487 371.515 369.549 371.716L372.32 381.002C372.394 381.219 372.414 381.449 372.38 381.675C372.345 381.901 372.257 382.115 372.122 382.299C371.987 382.483 371.81 382.633 371.606 382.734C371.401 382.835 371.175 382.886 370.947 382.881C366.826 382.881 360.838 382.658 355.685 382.705C349.627 382.705 346.926 383.127 339.812 383.198C335.515 383.198 333.942 378.901 335.762 378.502C343.827 376.635 347.995 376.389 354.745 371.963C355.456 371.45 356.3 371.156 357.176 371.117Z" fill="#263238"/>
<path opacity="0.2" d="M354.335 348.108L355.814 360.599L366.286 360.505L364.819 348.014L354.335 348.108Z" fill="black"/>
<path d="M352.844 372.985C353.974 372.964 355.1 372.827 356.201 372.574C356.254 372.566 356.302 372.541 356.338 372.503C356.374 372.464 356.396 372.415 356.401 372.362C356.406 372.312 356.395 372.261 356.37 372.217C356.344 372.173 356.306 372.137 356.26 372.116C355.767 371.869 351.365 369.768 350.155 370.508C350.044 370.579 349.952 370.678 349.891 370.795C349.829 370.913 349.799 371.044 349.803 371.177C349.8 371.403 349.85 371.626 349.948 371.83C350.045 372.033 350.189 372.212 350.367 372.351C351.101 372.827 351.971 373.05 352.844 372.985ZM355.356 372.233C353.09 372.632 351.365 372.55 350.66 371.987C350.538 371.892 350.441 371.768 350.378 371.627C350.314 371.486 350.286 371.331 350.296 371.177C350.289 371.129 350.297 371.08 350.318 371.036C350.339 370.992 350.372 370.955 350.414 370.93C351.071 370.531 353.56 371.47 355.356 372.233Z" fill="#407BFF"/>
<path d="M356.154 372.644C356.21 372.64 356.263 372.62 356.307 372.586C356.342 372.559 356.369 372.522 356.384 372.481C356.398 372.439 356.4 372.394 356.389 372.351C356.389 372.163 355.567 367.655 353.078 367.937C352.421 368.007 352.233 368.347 352.198 368.606C352.022 369.78 354.71 372.057 356.048 372.621L356.154 372.644ZM353.29 368.418C354.792 368.418 355.544 370.872 355.802 371.94C354.417 371.165 352.585 369.381 352.691 368.676C352.691 368.676 352.691 368.477 353.137 368.43L353.29 368.418Z" fill="#407BFF"/>
<path d="M360.263 84.3448L359.183 85.5188L358.173 86.5167C357.504 87.1742 356.812 87.7964 356.119 88.4069C354.741 89.6435 353.333 90.8175 351.893 91.9289C348.986 94.2387 345.927 96.3489 342.735 98.245C341.127 99.1959 339.472 100.1 337.793 100.957C336.114 101.814 334.341 102.554 332.557 103.305C328.897 104.765 325.085 105.808 321.192 106.416L320.324 106.545C319.759 106.618 319.191 106.653 318.621 106.651C317.314 106.639 316.02 106.384 314.806 105.899C313.602 105.416 312.499 104.711 311.554 103.821C310.801 103.104 310.146 102.291 309.605 101.403C308.855 100.115 308.29 98.7277 307.926 97.2823C307.642 96.1629 307.434 95.0254 307.304 93.8777C307.09 91.8934 307.031 89.8955 307.128 87.9021C307.21 86.0002 307.363 84.1687 307.574 82.3725C308.02 78.7683 308.654 75.3285 309.429 71.8065C310.204 68.2845 311.084 65.0325 312.223 61.6279L319.936 63.1541C319.655 69.752 319.338 76.5142 319.549 82.9008C319.587 85.8664 319.902 88.822 320.488 91.7293C320.604 92.2663 320.765 92.7926 320.969 93.3024C321.134 93.7016 321.333 93.9482 321.322 93.8425C321.253 93.6637 321.145 93.503 321.005 93.3729C320.685 93.0639 320.311 92.817 319.901 92.645C319.479 92.4676 319.031 92.3605 318.574 92.328C318.363 92.328 318.269 92.328 318.14 92.328H318.269L318.516 92.2576C321.297 91.5432 324.002 90.5603 326.593 89.3226C329.304 88.0144 331.927 86.532 334.447 84.8849C336.995 83.1943 339.507 81.3629 341.925 79.4258C343.099 78.4631 344.332 77.4534 345.447 76.4321L347.161 74.8824L347.983 74.1193L348.699 73.4384L360.263 84.3448Z" fill="#FF8B7B"/>
<path d="M366.473 80.2005C366.074 69.1297 356.987 65.2789 345.599 72.8278C340.579 76.0108 335.746 79.4798 331.124 83.2177L338.485 106.862C338.485 106.862 352.573 102.389 360.721 93.6076C366.203 87.6436 366.614 83.969 366.473 80.2005Z" fill="#263238"/>
<path opacity="0.2" d="M352.609 84.9199C352.609 84.9199 345.811 94.6406 343.405 104.972C346.746 103.547 349.966 101.851 353.031 99.9002L352.609 84.9199Z" fill="black"/>
<path d="M319.548 66.6646L323.493 57.754L312.328 54.4902C312.328 54.4902 310.415 58.7519 311.507 66.0659L319.548 66.6646Z" fill="#FF8B7B"/>
<path d="M324.68 47.3047L314.971 48.4669L312.329 54.4896L323.494 57.7533L324.68 47.3047Z" fill="#FF8B7B"/>
<path d="M352.679 160.455C352.679 160.455 345.471 220.869 344.673 253.201C343.851 286.789 350.437 354.541 350.437 354.541L369.35 354.142C369.35 354.142 371.628 281.612 374.375 248.376C377.357 212.147 384.87 159.798 384.87 159.798L352.679 160.455Z" fill="#407BFF"/>
<path opacity="0.6" d="M352.679 160.455C352.679 160.455 345.471 220.869 344.673 253.201C343.851 286.789 350.437 354.541 350.437 354.541L369.35 354.142C369.35 354.142 371.628 281.612 374.375 248.376C377.357 212.147 384.87 159.798 384.87 159.798L352.679 160.455Z" fill="white"/>
<path opacity="0.2" d="M375.209 177.56C366.756 196.192 369.022 237.81 373.823 255.655C373.999 253.06 374.187 250.607 374.375 248.341C376.336 224.462 380.245 193.597 382.722 175.318C380.421 171.984 377.85 171.725 375.209 177.56Z" fill="black"/>
<path d="M371.674 354.952L349.439 355.398L347.795 348.014L371.404 347.955L371.674 354.952Z" fill="#407BFF"/>
<path d="M414.384 372.233L403.912 372.327L401.06 348.096L411.532 348.002L414.384 372.233Z" fill="#FF8B7B"/>
<path d="M403.889 371.117L415.335 371.012C415.546 371.017 415.749 371.087 415.918 371.213C416.086 371.34 416.211 371.515 416.274 371.716L419.045 381.002C419.116 381.219 419.134 381.448 419.099 381.673C419.063 381.898 418.974 382.111 418.84 382.294C418.706 382.478 418.53 382.627 418.327 382.729C418.123 382.831 417.899 382.883 417.671 382.881C413.539 382.881 407.563 382.658 402.409 382.705C396.352 382.705 393.64 383.127 386.537 383.198C382.24 383.198 380.667 378.901 382.487 378.502C390.54 376.635 394.708 376.389 401.47 371.963C402.176 371.451 403.017 371.157 403.889 371.117Z" fill="#263238"/>
<path opacity="0.2" d="M401.06 348.108L402.527 360.599L413.011 360.505L411.543 348.014L401.06 348.108Z" fill="black"/>
<path d="M399.569 372.985C400.699 372.963 401.824 372.825 402.927 372.574C402.978 372.566 403.024 372.54 403.058 372.502C403.093 372.463 403.112 372.414 403.115 372.362C403.122 372.313 403.114 372.262 403.09 372.218C403.067 372.174 403.03 372.138 402.985 372.116C402.481 371.869 398.078 369.768 396.881 370.508C396.767 370.577 396.674 370.676 396.612 370.794C396.55 370.911 396.521 371.044 396.528 371.177C396.526 371.401 396.574 371.624 396.67 371.827C396.765 372.03 396.906 372.209 397.08 372.351C397.819 372.826 398.693 373.048 399.569 372.985ZM402.081 372.233C399.816 372.632 398.09 372.55 397.385 371.987C397.264 371.89 397.167 371.767 397.102 371.626C397.037 371.485 397.005 371.332 397.01 371.177C397.003 371.129 397.01 371.08 397.031 371.036C397.052 370.992 397.085 370.955 397.127 370.93C397.785 370.531 400.25 371.47 402.081 372.233Z" fill="#407BFF"/>
<path d="M402.868 372.644C402.904 372.643 402.939 372.634 402.972 372.618C403.004 372.602 403.033 372.58 403.056 372.552C403.08 372.525 403.097 372.492 403.107 372.458C403.117 372.423 403.119 372.387 403.114 372.351C403.114 372.163 402.293 367.655 399.804 367.937C399.146 368.007 398.958 368.347 398.912 368.606C398.747 369.78 401.436 372.057 402.774 372.621L402.868 372.644ZM400.015 368.418C401.506 368.418 402.269 370.872 402.527 371.94C401.142 371.165 399.299 369.381 399.405 368.676C399.405 368.676 399.405 368.477 399.851 368.43L400.015 368.418Z" fill="#407BFF"/>
<path d="M371.135 160.056C371.135 160.056 376.359 225.06 380.175 257.134C384.131 290.499 397.162 354.506 397.162 354.506L416.075 354.107C416.075 354.107 410.886 281.436 408.879 248.141C406.683 211.806 406.12 159.258 406.12 159.258L371.135 160.056Z" fill="#407BFF"/>
<path opacity="0.6" d="M371.135 160.056C371.135 160.056 376.359 225.06 380.175 257.134C384.131 290.499 397.162 354.506 397.162 354.506L416.075 354.107C416.075 354.107 410.886 281.436 408.879 248.141C406.683 211.806 406.12 159.258 406.12 159.258L371.135 160.056Z" fill="white"/>
<path d="M418.4 354.952L396.152 355.398L394.521 348.014L418.13 347.955L418.4 354.952Z" fill="#407BFF"/>
<path d="M351.376 69.9282C351.376 69.9282 343.639 98.6442 352.679 160.455C369.561 160.091 397.913 159.434 406.119 159.281C406.331 150.676 399.979 108.482 407.411 67.8032C402.064 66.8801 396.657 66.3543 391.233 66.2301C383.293 65.9402 375.344 66.1127 367.424 66.7467C362 67.3884 356.634 68.4521 351.376 69.9282Z" fill="#263238"/>
<path opacity="0.2" d="M404.171 96.7533L395.425 89.5098C396 95.1684 401.119 109.033 403.819 116.054C403.772 109.902 403.831 103.41 404.171 96.7533Z" fill="black"/>
<path d="M372.884 86.5754L363.339 105.465C363.138 105.862 363.067 106.312 363.138 106.751C363.209 107.191 363.417 107.596 363.733 107.909C364.049 108.223 364.456 108.428 364.896 108.495C365.336 108.562 365.786 108.488 366.181 108.283L372.414 104.855C372.753 104.672 373.137 104.589 373.521 104.614C373.905 104.639 374.274 104.771 374.586 104.995L380.726 109.421C381.079 109.678 381.505 109.814 381.941 109.81C382.377 109.806 382.8 109.661 383.148 109.398C383.495 109.135 383.749 108.766 383.871 108.348C383.993 107.929 383.977 107.482 383.826 107.073L376.653 86.9041C376.528 86.5204 376.293 86.182 375.977 85.9309C375.662 85.6798 375.279 85.5272 374.877 85.4921C374.475 85.4571 374.072 85.5411 373.718 85.7338C373.363 85.9264 373.073 86.2191 372.884 86.5754Z" fill="white"/>
<path d="M388.298 39.416C386.96 47.1175 385.762 61.182 391.233 66.1715C391.233 66.1715 389.637 73.145 375.067 75.5635C365.276 72.4171 367.424 66.735 367.424 66.735C375.924 64.5044 375.56 58.1765 373.952 52.2596L388.298 39.416Z" fill="#FF8B7B"/>
<path opacity="0.2" d="M382.452 44.6396L373.952 52.2002C374.348 53.5786 374.622 54.9888 374.774 56.4149C378.037 55.8748 382.44 52.1885 382.71 48.7721C382.876 47.3904 382.789 45.9899 382.452 44.6396Z" fill="black"/>
<path d="M392.959 29.9419C390.13 39.9444 388.991 45.9436 382.745 50.0408C373.353 56.1926 361.836 48.8668 361.613 38.1952C361.402 28.6153 366.051 13.8581 376.875 11.9797C379.253 11.558 381.699 11.7502 383.981 12.5383C386.264 13.3264 388.307 14.6843 389.918 16.4832C391.529 18.2821 392.653 20.4625 393.186 22.8178C393.718 25.173 393.64 27.6252 392.959 29.9419Z" fill="#FF8B7B"/>
<path d="M386.936 36.0696C385.621 32.8763 384.671 22.3573 390.153 19.7745C395.636 17.1917 401.33 23.4961 399.886 26.478C397.667 31.1036 389.989 43.4658 386.936 36.0696Z" fill="#263238"/>
<path d="M390.212 23.4843C388.862 19.9623 372.766 17.9665 370.512 14.1744C367.835 9.66629 378.812 9.12624 386.361 11.4155C392.994 13.4348 397.42 15.3837 396.645 20.3145C396.211 23.1086 390.212 23.4843 390.212 23.4843Z" fill="#263238"/>
<path d="M393.71 19.8564C393.71 19.8564 397.232 20.8191 399.157 18.2363C398.547 20.7956 395.553 23.3784 393.71 19.8564Z" fill="#263238"/>
<path d="M377.592 8.99733C372.755 5.24053 366.169 9.65477 366.791 14.5504C367.413 19.4459 383.72 23.1675 383.72 23.1675C383.72 23.1675 384.014 13.9868 377.592 8.99733Z" fill="#263238"/>
<path d="M366.803 14.5741C367.542 18.0022 370.043 20.6906 375.103 22.6864C372.174 20.5209 369.955 17.5338 368.728 14.1045L366.803 14.5741Z" fill="#263238"/>
<path d="M376.957 29.4363C376.781 30.2698 376.206 30.8451 375.666 30.7277C375.126 30.6103 374.832 29.8354 375.008 29.0136C375.184 28.1918 375.771 27.6166 376.311 27.734C376.851 27.8514 377.145 28.6614 376.957 29.4363Z" fill="#263238"/>
<path d="M367.636 27.417C367.448 28.2388 366.873 28.814 366.333 28.6966C365.793 28.5792 365.499 27.8161 365.675 26.9943C365.851 26.1725 366.438 25.5973 366.979 25.7029C367.519 25.8086 367.812 26.5952 367.636 27.417Z" fill="#263238"/>
<path d="M370.512 28.4736C368.979 30.7831 367.134 32.8691 365.029 34.6724C366.203 36.3512 368.821 36.269 368.821 36.269L370.512 28.4736Z" fill="#FF5652"/>
<path d="M370.723 39.0757C371.826 39.3495 372.978 39.3526 374.082 39.0848C375.186 38.817 376.209 38.2863 377.063 37.5377C377.086 37.5148 377.105 37.4874 377.118 37.4572C377.13 37.4269 377.137 37.3945 377.137 37.3617C377.137 37.3289 377.13 37.2964 377.118 37.2661C377.105 37.2359 377.086 37.2085 377.063 37.1856C377.015 37.141 376.952 37.1162 376.887 37.1162C376.822 37.1162 376.759 37.141 376.711 37.1856C375.909 37.8602 374.961 38.3379 373.942 38.5805C372.922 38.8231 371.86 38.8238 370.841 38.5826C370.775 38.5686 370.707 38.5811 370.651 38.6175C370.595 38.6538 370.555 38.7109 370.541 38.7763C370.527 38.8417 370.54 38.91 370.576 38.9661C370.613 39.0223 370.67 39.0617 370.735 39.0757H370.723Z" fill="#263238"/>
<path d="M380.421 27.0419C380.511 27.0599 380.604 27.053 380.691 27.0219C380.777 26.9908 380.853 26.9367 380.911 26.8654C380.969 26.7942 381.007 26.7084 381.02 26.6175C381.032 26.5265 381.02 26.4337 380.984 26.3492C380.667 25.6261 380.182 24.9891 379.57 24.4909C378.957 23.9927 378.235 23.6478 377.462 23.4846C377.332 23.4678 377.2 23.5025 377.095 23.5814C376.989 23.6604 376.919 23.7773 376.899 23.9073C376.889 23.9713 376.891 24.0366 376.907 24.0996C376.922 24.1625 376.949 24.2218 376.988 24.2742C377.026 24.3265 377.074 24.3708 377.129 24.4045C377.184 24.4383 377.246 24.4608 377.31 24.4708C377.919 24.6047 378.487 24.8823 378.967 25.2806C379.447 25.6788 379.825 26.1861 380.069 26.7601C380.101 26.8312 380.15 26.8936 380.211 26.9425C380.273 26.9914 380.344 27.0254 380.421 27.0419Z" fill="#263238"/>
<path d="M364.231 23.3196C364.323 23.3451 364.421 23.3419 364.511 23.3105C364.601 23.279 364.68 23.2208 364.736 23.1436C365.108 22.6449 365.591 22.2405 366.148 21.9632C366.705 21.6858 367.319 21.5432 367.941 21.5469C368.072 21.5594 368.202 21.5194 368.303 21.4357C368.405 21.352 368.469 21.2316 368.481 21.1008C368.494 20.97 368.454 20.8396 368.37 20.7384C368.286 20.6371 368.166 20.5732 368.035 20.5607C367.247 20.5374 366.466 20.7045 365.756 21.0479C365.047 21.3912 364.431 21.9007 363.961 22.5331C363.92 22.5833 363.889 22.6414 363.87 22.704C363.852 22.7666 363.846 22.8322 363.854 22.897C363.861 22.9618 363.882 23.0243 363.915 23.0809C363.947 23.1374 363.991 23.1867 364.043 23.2257C364.097 23.2728 364.161 23.3051 364.231 23.3196Z" fill="#263238"/>
<path d="M409.97 75.8096C412.107 79.5429 413.891 83.1588 415.746 86.8804C417.601 90.602 419.268 94.347 420.853 98.1743C422.438 102.002 423.976 105.887 425.314 109.914C426.706 113.93 427.882 118.018 428.836 122.159L429.553 125.364C429.866 126.869 430 128.406 429.952 129.943C429.852 132.798 429.219 135.609 428.085 138.231C426.092 142.65 423.257 146.637 419.738 149.971C416.599 153.001 413.179 155.726 409.524 158.107C407.751 159.281 405.92 160.361 404.077 161.394C402.234 162.427 400.402 163.378 398.348 164.282L394.45 157.461C395.87 156.287 397.432 155.113 398.888 153.845C400.343 152.577 401.764 151.286 403.173 149.995C405.893 147.471 408.417 144.743 410.722 141.835C412.771 139.342 414.361 136.503 415.418 133.453C415.781 132.316 415.924 131.121 415.84 129.931C415.806 129.452 415.715 128.98 415.57 128.522L414.772 125.892C412.4 118.598 409.577 111.458 406.319 104.514C404.711 100.992 402.997 97.4699 401.283 93.9479C399.569 90.4259 397.761 86.9039 396.011 83.558L409.97 75.8096Z" fill="#FF8B7B"/>
<path d="M407.81 67.8617C417.602 69.9749 424.411 95.5212 424.411 95.5212L406.907 111.405C401.341 105.214 396.963 98.0504 393.993 90.2734C389.355 77.4885 397.338 65.5842 407.81 67.8617Z" fill="#263238"/>
<path d="M396.575 156.252L385.316 156.369L392.36 167.722C392.36 167.722 400.379 165.738 401.095 161.711L396.575 156.252Z" fill="#FF8B7B"/>
<path d="M378.308 163.073L384.518 172.183L392.302 167.722L385.316 156.369L378.308 163.073Z" fill="#FF8B7B"/>
<path d="M396.035 39.0986C394.784 41.4001 392.674 43.1135 390.165 43.865C386.83 44.8395 385.128 41.8693 386.02 38.7112C386.83 35.8701 389.542 31.9372 392.877 32.3481C396.211 32.759 397.526 36.2693 396.035 39.0986Z" fill="#FF8B7B"/>
<path d="M296.25 233.345L283.732 234.253L283.817 235.424L296.335 234.516L296.25 233.345Z" fill="#407BFF"/>
<path d="M307.497 232.533L301.35 232.979L301.435 234.15L307.582 233.704L307.497 232.533Z" fill="#407BFF"/>
<path d="M361.508 94.723L154.227 109.668C149.913 110.005 145.906 112.029 143.075 115.302C140.244 118.574 138.818 122.831 139.106 127.149L146.15 224.849C146.483 229.17 148.51 233.184 151.788 236.018C155.066 238.852 159.331 240.277 163.654 239.982L175.394 239.137C176.247 239.075 177.09 239.355 177.737 239.914C178.384 240.473 178.783 241.266 178.846 242.119L180.161 260.222C180.182 260.572 180.308 260.909 180.522 261.187C180.736 261.466 181.028 261.674 181.361 261.785C181.695 261.896 182.054 261.905 182.392 261.81C182.73 261.716 183.032 261.522 183.26 261.255L202.913 238.538C203.739 237.586 204.908 237 206.165 236.906L370.9 225.037C375.217 224.703 379.227 222.68 382.06 219.407C384.894 216.134 386.321 211.876 386.033 207.556L378.989 109.856C378.656 105.54 376.633 101.529 373.36 98.696C370.087 95.8626 365.828 94.4349 361.508 94.723Z" fill="#407BFF"/>
<path d="M184.505 154.514L195.705 153.704L196.621 166.383L208.854 165.503L207.938 152.824L219.185 152.002L221.803 188.232L210.556 189.042L209.499 174.39L197.266 175.282L198.323 189.934L187.135 190.744L184.505 154.514Z" fill="white"/>
<path opacity="0.2" d="M154.227 109.668C149.913 110.005 145.906 112.029 143.075 115.302C140.244 118.574 138.818 122.831 139.106 127.149L146.15 224.849C146.483 229.17 148.51 233.184 151.788 236.018C155.066 238.852 159.331 240.277 163.654 239.982L165.38 239.853C168.247 239.646 170.966 238.498 173.114 236.587C175.263 234.677 176.72 232.111 177.261 229.287L200.87 106.299L154.227 109.668Z" fill="black"/>
<path d="M256.94 175.013L236.771 176.469C236.926 177.775 237.474 179.004 238.344 179.991C238.843 180.516 239.457 180.918 240.137 181.167C240.817 181.415 241.546 181.503 242.265 181.423C243.254 181.353 244.208 181.029 245.036 180.484C245.684 179.993 246.237 179.389 246.668 178.7L256.647 178.899C255.561 181.36 253.798 183.461 251.563 184.957C249.513 186.256 246.484 187.039 242.477 187.305C239.675 187.631 236.836 187.33 234.165 186.424C232.023 185.525 230.185 184.03 228.87 182.116C227.362 179.937 226.495 177.378 226.369 174.731C226.16 172.893 226.338 171.031 226.892 169.266C227.446 167.501 228.364 165.871 229.586 164.482C232.028 161.759 235.55 160.229 240.152 159.892C243.199 159.53 246.288 159.892 249.168 160.949C251.374 161.891 253.232 163.495 254.487 165.539C255.923 168.078 256.728 170.924 256.835 173.839L256.94 175.013ZM246.374 170.928C246.232 169.401 245.573 167.968 244.508 166.866C243.971 166.453 243.355 166.154 242.698 165.989C242.042 165.824 241.358 165.796 240.69 165.906C240.022 166.016 239.383 166.262 238.814 166.629C238.245 166.996 237.757 167.476 237.381 168.04C236.755 169.144 236.438 170.398 236.466 171.667L246.374 170.928Z" fill="white"/>
<path d="M260.052 149.056L270.136 148.328L272.754 184.546L262.67 185.274L260.052 149.056Z" fill="white"/>
<path d="M276.898 147.834L286.983 147.106L289.601 183.324L279.528 184.052L276.898 147.834Z" fill="white"/>
<path d="M293.85 169.906C293.66 168.069 293.858 166.212 294.433 164.456C295.007 162.7 295.945 161.085 297.185 159.716C299.697 156.922 303.254 155.356 307.856 155.02C313.1 154.644 317.178 155.881 320.089 158.73C322.508 161.28 323.905 164.63 324.015 168.143C324.126 171.656 322.942 175.086 320.688 177.784C318.199 180.554 314.591 182.12 309.864 182.48C306.192 182.92 302.482 182.047 299.392 180.014C297.748 178.874 296.392 177.367 295.431 175.613C294.469 173.859 293.928 171.905 293.85 169.906ZM303.935 169.155C303.916 171.008 304.552 172.808 305.731 174.238C306.207 174.725 306.783 175.103 307.418 175.345C308.054 175.587 308.735 175.688 309.414 175.642C310.093 175.595 310.754 175.401 311.35 175.073C311.947 174.746 312.465 174.293 312.869 173.745C313.818 172.111 314.175 170.199 313.879 168.333C313.891 166.517 313.263 164.755 312.106 163.355C311.654 162.859 311.094 162.474 310.469 162.23C309.844 161.985 309.171 161.888 308.502 161.946C307.805 161.979 307.124 162.171 306.513 162.509C305.903 162.847 305.378 163.322 304.98 163.895C304.034 165.474 303.68 167.339 303.982 169.155H303.935Z" fill="white"/>
<path d="M327.192 144.196L337.935 143.421L338.533 151.639L337.653 168.368L331.008 168.85L327.779 152.414L327.192 144.196ZM329.54 171.526L339.566 170.799L340.212 179.674L330.174 180.39L329.54 171.526Z" fill="white"/>
<path d="M151.362 77.5C151.31 79.2186 151.4 80.9385 151.632 82.6421C140.994 86.1947 129.649 87.0935 118.584 85.2602C119.115 83.252 119.438 81.1945 119.547 79.1201C119.177 81.2088 118.45 83.2183 117.398 85.0606C115.309 84.6614 114.135 84.321 114.135 84.321C114.135 84.321 116.271 72.7688 112.421 64.363C108.57 55.9571 110.495 51.2611 113.407 49.9345C118.807 33.3341 139.106 35.9522 145.973 42.6909C154.685 51.2376 154.731 75.3164 156.281 80.8224C155.002 81.3742 153.745 81.879 152.489 82.3252C151.86 80.7867 151.48 79.158 151.362 77.5Z" fill="#263238"/>
<path d="M159.757 103.34L160.814 106.686C161.201 107.86 161.588 109.034 161.988 110.149C162.774 112.497 163.596 114.845 164.476 117.099C165.357 119.353 166.202 121.725 167.118 124.026L168.48 127.548L168.82 128.416L168.902 128.616C168.757 128.489 168.59 128.39 168.409 128.323C168.151 128.229 168.045 128.323 168.21 128.323C168.492 128.321 168.773 128.278 169.043 128.193C169.961 127.902 170.843 127.509 171.673 127.019C173.675 125.853 175.59 124.542 177.402 123.098C179.304 121.619 181.171 120.034 183.002 118.402C184.834 116.77 186.677 115.068 188.449 113.401L192.054 116.453C190.551 118.614 188.966 120.586 187.358 122.593C185.749 124.601 183.941 126.479 182.086 128.346C180.177 130.295 178.099 132.071 175.876 133.653C174.604 134.543 173.238 135.292 171.802 135.883C170.891 136.249 169.936 136.493 168.961 136.611C167.638 136.776 166.295 136.594 165.063 136.083C163.721 135.511 162.577 134.555 161.776 133.336C161.6 133.066 161.436 132.796 161.307 132.549L160.99 131.915L160.567 131.058C160.015 129.884 159.393 128.71 158.912 127.606C157.843 125.258 156.775 122.91 155.801 120.562C154.826 118.214 153.875 115.796 152.971 113.378C152.549 112.204 152.126 110.924 151.727 109.691C151.328 108.458 150.94 107.249 150.553 105.805L159.757 103.34Z" fill="#FFC3BD"/>
<path d="M156.974 92.9146C161.024 93.9477 163.854 110.595 163.854 110.595L152.701 118.179C152.701 118.179 142.017 101.379 145.129 96.9297C148.369 92.3041 151.069 91.4119 156.974 92.9146Z" fill="#407BFF"/>
<path d="M156.974 92.9146C161.024 93.9477 163.854 110.595 163.854 110.595L152.701 118.179C152.701 118.179 142.017 101.379 145.129 96.9297C148.369 92.3041 151.069 91.4119 156.974 92.9146Z" fill="#407BFF"/>
<path opacity="0.4" d="M156.974 92.9146C161.024 93.9477 163.854 110.595 163.854 110.595L152.701 118.179C152.701 118.179 142.017 101.379 145.129 96.9297C148.369 92.3041 151.069 91.4119 156.974 92.9146Z" fill="white"/>
<path opacity="0.3" d="M156.61 96.6357L159.721 113.412L153.452 117.662L156.61 96.6357Z" fill="black"/>
<path d="M188.261 113.8L191.982 104.831L196.573 113.8C196.573 113.8 193.591 118.262 189.658 117.17L188.261 113.8Z" fill="#FFC3BD"/>
<path d="M196.08 103.903L201.973 106.275L196.573 113.8L191.971 104.831L196.08 103.903Z" fill="#FFC3BD"/>
<path d="M135.079 373.172H144.905L145.563 350.432H135.737L135.079 373.172Z" fill="#FFC3BD"/>
<path d="M69.1943 343.88L78.2224 347.731L90.0446 328.055L81.0048 324.204L69.1943 343.88Z" fill="#FFC3BD"/>
<path d="M79.9597 346.393L70.5677 340.617C70.4071 340.514 70.2141 340.474 70.0256 340.504C69.8371 340.534 69.6664 340.633 69.5463 340.782L63.8994 347.556C63.7589 347.733 63.658 347.938 63.6034 348.158C63.5489 348.377 63.5419 348.606 63.5831 348.828C63.6242 349.051 63.7125 349.262 63.842 349.447C63.9715 349.633 64.1392 349.788 64.3338 349.904C67.6445 351.864 69.335 352.639 73.4675 355.175C76.0151 356.748 79.5606 359.284 83.0708 361.444C86.5811 363.604 88.9408 360.27 87.6377 359.037C81.9438 353.602 82.1081 351.019 81.0398 347.802C80.8622 347.217 80.4785 346.717 79.9597 346.393Z" fill="#263238"/>
<path d="M145.234 372.033H134.211C134.021 372.031 133.837 372.098 133.692 372.221C133.547 372.344 133.452 372.515 133.424 372.702L132.168 381.437C132.137 381.661 132.155 381.889 132.222 382.105C132.288 382.322 132.4 382.521 132.551 382.689C132.701 382.858 132.887 382.992 133.095 383.082C133.302 383.172 133.527 383.215 133.753 383.21C137.603 383.151 139.458 382.916 144.319 382.916C147.301 382.916 153.476 383.233 157.597 383.233C161.717 383.233 161.929 379.159 160.215 378.784C152.525 377.128 149.496 374.851 146.901 372.679C146.442 372.269 145.85 372.04 145.234 372.033Z" fill="#263238"/>
<path opacity="0.2" d="M145.552 350.443L145.223 362.16H135.396L135.737 350.443H145.552Z" fill="black"/>
<path opacity="0.2" d="M81.0042 324.216L90.0323 328.055L83.9392 338.198L74.9111 334.347L81.0042 324.216Z" fill="black"/>
<path d="M156.974 92.9147C156.974 92.9147 161.67 94.5583 152.278 152.166H112.362C113.031 135.942 113.055 125.939 105.318 92.6329C110.9 91.4795 116.558 90.734 122.247 90.4023C128.278 89.9675 134.332 89.9675 140.362 90.4023C148.157 91.1067 156.974 92.9147 156.974 92.9147Z" fill="#407BFF"/>
<path opacity="0.4" d="M156.974 92.9147C156.974 92.9147 161.67 94.5583 152.278 152.166H112.362C113.031 135.942 113.055 125.939 105.318 92.6329C110.9 91.4795 116.558 90.734 122.247 90.4023C128.278 89.9675 134.332 89.9675 140.362 90.4023C148.157 91.1067 156.974 92.9147 156.974 92.9147Z" fill="white"/>
<path d="M122.271 90.3908C128.301 89.9674 134.355 89.9674 140.385 90.3908C141.36 90.4847 142.358 90.5904 143.344 90.7078C143.754 91.3247 144.018 92.0277 144.113 92.7626C144.209 93.4974 144.135 94.2444 143.896 94.9459C142.616 98.104 138.026 98.4679 134.692 98.4679C122.353 98.4679 120.263 91.2595 120.181 90.9543L120.063 90.5199L122.271 90.3908Z" fill="white"/>
<path d="M124.067 70.0098C125.241 75.8798 126.356 86.5162 122.271 90.4021C122.271 90.4021 123.867 96.2721 134.692 96.2721C146.596 96.2721 140.386 90.4021 140.386 90.4021C133.882 88.8525 134.058 84.0273 135.185 79.5074L124.067 70.0098Z" fill="#FFC3BD"/>
<path d="M125.253 65.8652C123.856 70.4791 125.793 81.3973 128.669 85.6237C122.999 82.3717 121.085 72.4631 121.085 72.4631L125.253 65.8652Z" fill="#263238"/>
<path opacity="0.2" d="M128.598 73.8838L135.184 79.4955C134.895 80.5476 134.707 81.6246 134.621 82.7123C132.144 82.3483 128.751 79.6246 128.469 77.0301C128.323 75.9821 128.367 74.9163 128.598 73.8838Z" fill="black"/>
<path d="M118.69 59.6085C120.968 69.0827 121.719 73.1447 127.425 77.2185C136.006 83.3351 147.148 78.4747 147.746 68.5074C148.287 59.5381 144.483 45.5557 134.445 43.3956C132.233 42.9073 129.934 42.9923 127.764 43.6425C125.595 44.2928 123.627 45.4867 122.049 47.111C120.47 48.7353 119.333 50.736 118.745 52.9233C118.158 55.1106 118.139 57.4118 118.69 59.6085Z" fill="#FFC3BD"/>
<path d="M152.29 152.166C152.29 152.166 160.027 227.795 159.334 257.732C158.665 288.867 147.254 359.87 147.254 359.87H133.988C133.988 359.87 136.089 290.663 134.915 260.08C133.635 226.739 123.046 152.143 123.046 152.143L152.29 152.166Z" fill="#407BFF"/>
<path opacity="0.4" d="M152.29 152.166C152.29 152.166 160.027 227.795 159.334 257.732C158.665 288.867 147.254 359.87 147.254 359.87H133.988C133.988 359.87 136.089 290.663 134.915 260.08C133.635 226.739 123.046 152.143 123.046 152.143L152.29 152.166Z" fill="black"/>
<path d="M132.884 360.364H148.451L149.602 355.398L132.156 354.787L132.884 360.364Z" fill="#407BFF"/>
<path opacity="0.2" d="M135.091 170.985C144.882 190.685 137.051 226.621 133.588 239.993C131.815 219.918 128.822 195.381 126.485 177.337C127.965 167.193 130.571 161.899 135.091 170.985Z" fill="black"/>
<path d="M141.759 152.166C141.759 152.166 132.719 230.824 125.898 256.03C117.809 286.002 87.0155 337.036 87.0155 337.036L74.7002 331.8C74.7002 331.8 93.7542 273.851 99.9529 258.061C113.16 224.367 101.855 174.155 112.409 152.166H141.759Z" fill="#407BFF"/>
<path opacity="0.4" d="M141.759 152.166C141.759 152.166 132.719 230.824 125.898 256.03C117.809 286.002 87.0155 337.036 87.0155 337.036L74.7002 331.8C74.7002 331.8 93.7542 273.851 99.9529 258.061C113.16 224.367 101.855 174.155 112.409 152.166H141.759Z" fill="black"/>
<path d="M72.998 331.835L88.2835 338.339L91.9581 334.23L74.3247 325.766L72.998 331.835Z" fill="#407BFF"/>
<path d="M133.752 59.7374C133.893 60.5122 134.409 61.0758 134.926 60.9818C135.443 60.8879 135.736 60.1835 135.595 59.4087C135.454 58.6338 134.938 58.0703 134.421 58.1525C133.905 58.2347 133.552 58.9508 133.752 59.7374Z" fill="#263238"/>
<path d="M142.511 58.1876C142.64 58.9624 143.168 59.526 143.685 59.432C144.201 59.3381 144.507 58.6337 144.366 57.8589C144.225 57.084 143.708 56.5205 143.192 56.6027C142.675 56.6849 142.37 57.401 142.511 58.1876Z" fill="#263238"/>
<path d="M142.969 56.6969L144.741 55.8164C144.741 55.8164 144.037 57.4483 142.969 56.6969Z" fill="#263238"/>
<path d="M140.409 59.9365C141.417 61.5934 142.65 63.1027 144.072 64.4212C143.723 64.7739 143.303 65.0468 142.838 65.2211C142.374 65.3954 141.878 65.467 141.383 65.4309L140.409 59.9365Z" fill="#ED847E"/>
<path d="M137.85 69.1061C138.295 69.1053 138.739 69.066 139.177 68.9887C139.21 68.9874 139.243 68.9788 139.273 68.9637C139.303 68.9486 139.329 68.9272 139.35 68.9011C139.371 68.8749 139.386 68.8446 139.395 68.8121C139.403 68.7795 139.404 68.7456 139.398 68.7126C139.392 68.6796 139.379 68.6482 139.36 68.6206C139.341 68.593 139.317 68.5698 139.288 68.5526C139.259 68.5354 139.227 68.5245 139.193 68.5208C139.16 68.517 139.126 68.5204 139.094 68.5308C138.128 68.7235 137.129 68.6846 136.18 68.4172C135.231 68.1499 134.359 67.6619 133.635 66.9929C133.591 66.9499 133.532 66.9258 133.471 66.9258C133.41 66.9258 133.351 66.9499 133.307 66.9929C133.284 67.0138 133.266 67.0392 133.253 67.0675C133.241 67.0958 133.234 67.1263 133.234 67.1572C133.234 67.1882 133.241 67.2187 133.253 67.247C133.266 67.2753 133.284 67.3007 133.307 67.3216C134.532 68.4837 136.161 69.1237 137.85 69.1061Z" fill="#263238"/>
<path d="M122.012 54.0557C122.269 56.5522 122.661 59.033 123.186 61.4871C123.186 61.4871 129.056 54.0557 130.031 50.0758C129.798 51.6427 129.343 53.1686 128.681 54.6075C128.681 54.6075 136.582 52.8817 137.356 47.6691C137.343 50.0027 137.083 52.3284 136.582 54.6075C136.582 54.6075 144.119 51.649 143.426 46.6478C142.733 41.6465 131.158 39.7094 125.816 41.4C120.474 43.0905 115.25 48.5731 116.823 56.1102C118.396 63.6473 121.414 66.4766 121.414 66.4766C121.414 66.4766 119.242 58.8808 122.012 54.0557Z" fill="#263238"/>
<path d="M118.279 66.7462C119.004 68.4852 120.389 69.8659 122.13 70.5852C124.478 71.5244 125.875 69.5169 125.464 67.1923C125.1 65.0909 123.445 62.0854 121.015 62.1324C120.483 62.1559 119.965 62.3116 119.509 62.5852C119.052 62.8588 118.671 63.2419 118.4 63.6998C118.128 64.1576 117.975 64.6759 117.954 65.2078C117.933 65.7396 118.045 66.2684 118.279 66.7462Z" fill="#FFC3BD"/>
<path d="M123.433 50.4395C122.259 55.1355 124.701 65.9363 127.777 70.01C121.907 67.0398 119.559 57.2252 119.559 57.2252L123.433 50.4395Z" fill="#263238"/>
<path d="M130.536 57.0607C130.596 57.0424 130.652 57.0122 130.701 56.9719C130.749 56.9316 130.789 56.8819 130.818 56.8259C131.065 56.2963 131.435 55.8329 131.896 55.4737C132.357 55.1145 132.897 54.8698 133.471 54.7596C133.592 54.7421 133.703 54.6789 133.779 54.5829C133.855 54.4869 133.892 54.3653 133.882 54.2431C133.876 54.1817 133.858 54.1221 133.829 54.0679C133.799 54.0137 133.759 53.966 133.711 53.9277C133.663 53.8893 133.607 53.8611 133.548 53.8447C133.489 53.8282 133.426 53.824 133.365 53.8322C132.637 53.9585 131.95 54.258 131.361 54.7055C130.773 55.1529 130.301 55.7352 129.984 56.4032C129.944 56.4849 129.929 56.5763 129.94 56.6665C129.951 56.7566 129.988 56.8417 130.046 56.9113C130.105 56.9809 130.182 57.032 130.269 57.0585C130.356 57.085 130.449 57.0858 130.536 57.0607Z" fill="#263238"/>
<path d="M145.715 53.4209C145.774 53.4234 145.833 53.4132 145.888 53.3909C145.943 53.3686 145.992 53.3348 146.032 53.2917C146.119 53.204 146.167 53.0859 146.167 52.963C146.167 52.8401 146.119 52.7221 146.032 52.6343C145.532 52.0925 144.911 51.6762 144.219 51.4192C143.528 51.1622 142.786 51.0717 142.053 51.1551C141.992 51.1663 141.933 51.1896 141.881 51.2235C141.829 51.2574 141.785 51.3013 141.75 51.3526C141.715 51.4039 141.69 51.4616 141.678 51.5224C141.665 51.5832 141.665 51.6459 141.677 51.7069C141.702 51.8256 141.773 51.9298 141.874 51.9976C141.974 52.0655 142.097 52.0917 142.217 52.0708C142.795 52.0062 143.38 52.0789 143.925 52.2828C144.469 52.4868 144.958 52.8164 145.352 53.2448C145.395 53.2994 145.451 53.3435 145.514 53.374C145.577 53.4045 145.646 53.4205 145.715 53.4209Z" fill="#263238"/>
<path d="M110.19 106.568C108.558 111.722 106.997 117.134 105.67 122.464C104.335 127.726 103.358 133.072 102.747 138.466L102.653 139.452C102.653 139.769 102.653 139.839 102.653 140.121C102.666 140.675 102.709 141.227 102.782 141.776C102.932 143.062 103.147 144.34 103.428 145.604C103.98 148.222 104.602 150.922 105.4 153.599C106.199 156.275 106.88 158.999 107.678 161.699L110.026 169.8L105.67 171.596C102.994 166.477 100.669 161.265 98.4973 155.888C97.4524 153.188 96.431 150.464 95.5858 147.588C95.1631 146.155 94.764 144.688 94.4118 143.091C94.2445 142.246 94.127 141.391 94.0596 140.532C94.0596 140.098 94.0596 139.452 94.0596 139.064V137.89C94.1591 134.899 94.4335 131.916 94.8814 128.956C95.2688 126.021 95.844 123.157 96.4663 120.304C97.6878 114.59 99.2561 108.957 101.162 103.434L110.19 106.568Z" fill="#FFC3BD"/>
<path d="M105.342 92.6327C101.35 93.8067 96.5488 107.601 96.5488 107.601L112.046 118.684C112.046 118.684 117.704 107.202 116.025 102.036C114.276 96.6595 109.909 91.2474 105.342 92.6327Z" fill="#407BFF"/>
<path opacity="0.4" d="M105.342 92.6327C101.35 93.8067 96.5488 107.601 96.5488 107.601L112.046 118.684C112.046 118.684 117.704 107.202 116.025 102.036C114.276 96.6595 109.909 91.2474 105.342 92.6327Z" fill="white"/>
<path d="M83.9281 350.126C84.119 350.059 84.2927 349.951 84.4368 349.808C84.5809 349.666 84.6918 349.494 84.7616 349.304C84.8295 349.182 84.8651 349.045 84.8651 348.905C84.8651 348.765 84.8295 348.628 84.7616 348.506C84.0572 347.473 80.5 347.555 80.0656 347.567C80.0206 347.568 79.9767 347.581 79.9393 347.606C79.9018 347.631 79.8723 347.666 79.8543 347.708C79.8314 347.745 79.8193 347.787 79.8193 347.831C79.8193 347.874 79.8314 347.917 79.8543 347.954C80.7818 348.882 82.5193 350.396 83.7402 350.161L83.9281 350.126ZM80.6291 347.989C82.0497 347.989 83.9516 348.189 84.3272 348.741C84.3593 348.794 84.3763 348.855 84.3763 348.917C84.3763 348.979 84.3593 349.04 84.3272 349.093C84.2753 349.235 84.1892 349.361 84.0766 349.462C83.9639 349.562 83.8282 349.633 83.6815 349.668C83.0358 349.833 81.9088 349.163 80.6291 347.989Z" fill="#407BFF"/>
<path d="M81.6734 347.743C82.7535 347.403 83.904 346.804 84.1505 346.135C84.2118 345.961 84.2127 345.771 84.153 345.596C84.0934 345.422 83.9767 345.272 83.8218 345.172C83.6851 345.058 83.5242 344.976 83.3513 344.934C83.1784 344.891 82.9981 344.888 82.8239 344.925C81.4269 345.172 79.9241 347.567 79.8654 347.673C79.8448 347.708 79.834 347.749 79.834 347.79C79.834 347.831 79.8448 347.872 79.8654 347.907C79.8866 347.942 79.9158 347.97 79.9506 347.991C79.9854 348.011 80.0247 348.023 80.065 348.025C80.612 348.009 81.1538 347.914 81.6734 347.743ZM82.7535 345.395H82.9061C83.0165 345.372 83.1306 345.374 83.2402 345.4C83.3498 345.427 83.4522 345.477 83.5401 345.548C83.7749 345.735 83.7514 345.876 83.7162 345.982C83.4814 346.628 81.6969 347.403 80.5111 347.555C81.0506 346.652 81.8258 345.914 82.7535 345.418V345.395Z" fill="#407BFF"/>
<path d="M148.921 373.747C149.748 373.815 150.575 373.604 151.269 373.148C151.43 373.002 151.553 372.819 151.627 372.614C151.701 372.409 151.723 372.19 151.692 371.974C151.682 371.847 151.641 371.724 151.571 371.617C151.501 371.51 151.405 371.423 151.292 371.364C150.118 370.706 146.185 372.702 145.739 372.925C145.696 372.943 145.659 372.973 145.634 373.012C145.608 373.05 145.594 373.096 145.594 373.142C145.594 373.189 145.608 373.234 145.634 373.273C145.659 373.312 145.696 373.342 145.739 373.359C146.784 373.596 147.85 373.726 148.921 373.747ZM150.67 371.716C150.82 371.706 150.969 371.735 151.105 371.798C151.151 371.823 151.189 371.861 151.216 371.906C151.243 371.952 151.257 372.004 151.257 372.056C151.279 372.191 151.267 372.33 151.222 372.459C151.177 372.588 151.1 372.704 150.999 372.796C150.4 373.336 148.78 373.43 146.608 373.066C147.876 372.389 149.249 371.933 150.67 371.716Z" fill="#407BFF"/>
<path d="M145.879 373.407H145.973C147.147 372.879 149.495 370.766 149.284 369.65C149.284 369.38 149.049 369.063 148.404 368.993C148.172 368.967 147.938 368.989 147.716 369.058C147.494 369.126 147.288 369.24 147.112 369.392C145.938 370.425 145.656 373.067 145.645 373.172C145.643 373.214 145.652 373.255 145.671 373.291C145.689 373.328 145.716 373.36 145.75 373.384C145.789 373.408 145.835 373.416 145.879 373.407ZM148.227 369.427H148.368C148.791 369.427 148.826 369.65 148.826 369.697C148.944 370.366 147.37 372.045 146.173 372.761C146.267 371.646 146.706 370.587 147.429 369.733C147.644 369.537 147.925 369.428 148.216 369.427H148.227Z" fill="#407BFF"/>
<path d="M111.81 149.83L110.801 153.352C110.66 153.622 110.989 153.904 111.446 153.904H152.536C152.9 153.904 153.194 153.728 153.217 153.505L153.581 149.983C153.581 149.736 153.288 149.525 152.9 149.525H112.468C112.341 149.515 112.214 149.538 112.099 149.591C111.984 149.645 111.885 149.727 111.81 149.83Z" fill="#263238"/>
<path d="M117.235 154.338H116.143C115.932 154.338 115.767 154.233 115.779 154.092L116.284 149.396C116.284 149.267 116.495 149.149 116.706 149.149H117.786C118.01 149.149 118.162 149.267 118.15 149.396L117.646 154.092C117.646 154.28 117.458 154.338 117.235 154.338Z" fill="#407BFF"/>
<path opacity="0.4" d="M117.235 154.338H116.143C115.932 154.338 115.767 154.233 115.779 154.092L116.284 149.396C116.284 149.267 116.495 149.149 116.706 149.149H117.786C118.01 149.149 118.162 149.267 118.15 149.396L117.646 154.092C117.646 154.28 117.458 154.338 117.235 154.338Z" fill="black"/>
<path d="M149.437 154.338H148.357C148.145 154.338 147.981 154.233 147.993 154.092L148.509 149.396C148.509 149.267 148.709 149.149 148.92 149.149H150C150.223 149.149 150.388 149.267 150.364 149.396L149.859 154.092C149.848 154.28 149.66 154.338 149.437 154.338Z" fill="#407BFF"/>
<path opacity="0.4" d="M149.437 154.338H148.357C148.145 154.338 147.981 154.233 147.993 154.092L148.509 149.396C148.509 149.267 148.709 149.149 148.92 149.149H150C150.223 149.149 150.388 149.267 150.364 149.396L149.859 154.092C149.848 154.28 149.66 154.338 149.437 154.338Z" fill="black"/>
<path d="M133.342 154.338H132.262C132.039 154.338 131.874 154.233 131.898 154.092L132.403 149.396C132.403 149.267 132.602 149.149 132.825 149.149H133.905C134.117 149.149 134.281 149.267 134.269 149.396L133.764 154.092C133.753 154.28 133.553 154.338 133.342 154.338Z" fill="#407BFF"/>
<path opacity="0.4" d="M133.342 154.338H132.262C132.039 154.338 131.874 154.233 131.898 154.092L132.403 149.396C132.403 149.267 132.602 149.149 132.825 149.149H133.905C134.117 149.149 134.281 149.267 134.269 149.396L133.764 154.092C133.753 154.28 133.553 154.338 133.342 154.338Z" fill="black"/>
<path d="M134.152 58.235L135.924 57.3662C135.924 57.3662 135.22 58.9981 134.152 58.235Z" fill="#263238"/>
<path d="M109.697 168.474L118.115 174.931L108.359 177.079C108.359 177.079 104.215 172.383 105.647 168.509L109.697 168.474Z" fill="#FFC3BD"/>
<path d="M120.181 182.925L111.916 184.275L107.408 175.798L118.115 174.93L120.181 182.925Z" fill="#FFC3BD"/>
</g>
<defs>
<clipPath id="clip0_17_10590">
<rect width="526" height="394" fill="white"/>
</clipPath>
</defs>
</svg>
