<svg xmlns="http://www.w3.org/2000/svg" width="60" height="60" viewBox="0 0 60 60" fill="none">
<rect width="60" height="60" rx="15" fill="#FAEBFF"/>
<path d="M30.9409 18.3191C30.9078 18.3191 30.8416 18.3191 30.8085 18.3191C30.8416 18.3191 30.8747 18.3191 30.9409 18.3191ZM30.8085 18.3191C30.7092 18.3191 30.643 18.3191 30.5437 18.3191C30.6099 18.3191 30.7092 18.3191 30.8085 18.3191ZM31.4704 28.091C31.2388 27.9576 31.0071 27.8575 30.7754 27.7575C32.9598 26.29 34.2837 23.6219 33.7872 20.7204C33.2577 17.7521 30.7754 15.4176 27.7967 15.0507C23.6265 14.5504 20.0851 17.8188 20.0851 21.921C20.0851 24.3557 21.3097 26.4901 23.1962 27.7241C22.9645 27.8242 22.7329 27.9576 22.5012 28.0576C19.8203 29.6585 18 32.56 18 35.9285V41.865C18 43.5993 19.3901 45 21.1111 45H27.0024H32.8936C34.6147 45 36.0047 43.5993 36.0047 41.865V35.9285C35.9716 32.56 34.1513 29.6585 31.4704 28.091ZM45.3381 20.0534H42.3593V17.0518C42.3593 16.6849 42.0615 16.3847 41.6974 16.3847H40.3735C40.0095 16.3847 39.7116 16.6849 39.7116 17.0518V20.0534H36.7329C36.3688 20.0534 36.0709 20.3535 36.0709 20.7204V22.0544C36.0709 22.4213 36.3688 22.7215 36.7329 22.7215H39.7116V25.7231C39.7116 26.0899 40.0095 26.3901 40.3735 26.3901H41.6974C42.0615 26.3901 42.3593 26.0899 42.3593 25.7231V22.7215H45.3381C45.7021 22.7215 46 22.4213 46 22.0544V20.7204C46 20.3535 45.7021 20.0534 45.3381 20.0534Z" fill="#D769FF"/>
</svg>