<svg xmlns="http://www.w3.org/2000/svg" width="25" height="24" viewBox="0 0 25 24" fill="none">
  <path d="M10.6599 4C12.8599 4 14.6599 5.8 14.6599 8C14.6599 10.2 12.8599 12 10.6599 12C8.45991 12 6.65991 10.2 6.65991 8C6.65991 5.8 8.45991 4 10.6599 4ZM17.6599 21L19.4599 22.77C19.9599 23.27 20.6599 22.87 20.6599 22.28V18L23.4599 14.6C23.5713 14.4514 23.6392 14.2748 23.6559 14.0898C23.6726 13.9048 23.6374 13.7189 23.5543 13.5528C23.4713 13.3867 23.3436 13.247 23.1856 13.1493C23.0277 13.0517 22.8456 13 22.6599 13H15.6599C14.8599 13 14.3599 14 14.8599 14.6L17.6599 18V21ZM15.6599 18.7L13.3599 15.9C12.9599 15.4 12.7599 14.8 12.7599 14.2C12.0599 14 11.3599 14 10.6599 14C6.25991 14 2.65991 15.8 2.65991 18V20H15.6599V18.7Z" fill="#2C60EA"/>
</svg>