<svg xmlns="http://www.w3.org/2000/svg" width="24" height="20" viewBox="0 0 24 20" fill="none">
  <path d="M1.21933 16.1744L7.23574 18.2692V3.74942C7.23574 2.82901 7.97156 2.08287 8.87923 2.08287H12.5228L6.72955 0.0476007C6.52386 -0.0263169 6.29756 -0.013745 6.10106 0.0825154C5.90457 0.178776 5.7542 0.350728 5.68346 0.560065L0.708208 15.1103C0.635825 15.3201 0.649101 15.5505 0.745085 15.7503C0.84107 15.9502 1.01181 16.1028 1.21933 16.1744Z" fill="#2C60EA"/>
  <path d="M19.1516 14.5801C18.6977 14.5801 18.3298 14.9531 18.3298 15.4134V19.4072L23.0902 14.5801H19.1516Z" fill="#2C60EA"/>
  <path d="M15.8635 3.74982C16.5442 3.74982 17.0961 3.19022 17.0961 2.49991C17.0961 1.8096 16.5442 1.25 15.8635 1.25C15.1827 1.25 14.6309 1.8096 14.6309 2.49991C14.6309 3.19022 15.1827 3.74982 15.8635 3.74982Z" fill="#2C60EA"/>
  <path d="M8.04907 3.75124V19.1668C8.04907 19.627 8.41698 20.0001 8.87082 20.0001H17.4991V15.4171C17.4991 14.4967 18.235 13.7505 19.1426 13.7505H23.6622V3.75124C23.6622 3.29104 23.2943 2.91797 22.8405 2.91797H17.8689C17.6745 3.88887 16.8327 4.58661 15.8557 4.58661C14.8786 4.58661 14.0368 3.88887 13.8424 2.91797H8.87082C8.41698 2.91797 8.04907 3.29104 8.04907 3.75124ZM10.1034 5.83443H12.9795C13.2065 5.83443 13.3904 6.02097 13.3904 6.25107C13.3904 6.48117 13.2065 6.66771 12.9795 6.66771H10.1034C9.87652 6.66771 9.69256 6.48117 9.69256 6.25107C9.69256 6.02097 9.87652 5.83443 10.1034 5.83443ZM10.1034 7.91762H20.3752C20.6022 7.91762 20.7861 8.10415 20.7861 8.33426C20.7861 8.56436 20.6022 8.75089 20.3752 8.75089H10.1034C9.87652 8.75089 9.69256 8.56436 9.69256 8.33426C9.69256 8.10415 9.87652 7.91762 10.1034 7.91762ZM10.1034 10.0008H20.3752C20.6022 10.0008 20.7861 10.1873 20.7861 10.4174C20.7861 10.6475 20.6022 10.8341 20.3752 10.8341H10.1034C9.87652 10.8341 9.69256 10.6475 9.69256 10.4174C9.69256 10.1873 9.87652 10.0008 10.1034 10.0008ZM10.1034 12.084H20.3752C20.6022 12.084 20.7861 12.2705 20.7861 12.5006C20.7861 12.7307 20.6022 12.9173 20.3752 12.9173H10.1034C9.87652 12.9173 9.69256 12.7307 9.69256 12.5006C9.69256 12.2705 9.87652 12.084 10.1034 12.084ZM10.1034 15.8337H11.7469C11.9738 15.8337 12.1578 16.0203 12.1578 16.2504C12.1578 16.4805 11.9738 16.667 11.7469 16.667H10.1034C9.87652 16.667 9.69256 16.4805 9.69256 16.2504C9.69256 16.0203 9.87652 15.8337 10.1034 15.8337Z" fill="#2C60EA"/>
</svg>